<?xml version="1.0" encoding="utf-8" standalone="no"?>
<!DOCTYPE svg PUBLIC "-//W3C//DTD SVG 1.1//EN"
  "http://www.w3.org/Graphics/SVG/1.1/DTD/svg11.dtd">
<svg xmlns:xlink="http://www.w3.org/1999/xlink" width="650.03pt" height="528.394299pt" viewBox="0 0 650.03 528.394299" xmlns="http://www.w3.org/2000/svg" version="1.1">
 <metadata>
  <rdf:RDF xmlns:dc="http://purl.org/dc/elements/1.1/" xmlns:cc="http://creativecommons.org/ns#" xmlns:rdf="http://www.w3.org/1999/02/22-rdf-syntax-ns#">
   <cc:Work>
    <dc:type rdf:resource="http://purl.org/dc/dcmitype/StillImage"/>
    <dc:date>2026-07-22T20:14:27.294593</dc:date>
    <dc:format>image/svg+xml</dc:format>
    <dc:creator>
     <cc:Agent>
      <dc:title>Matplotlib v3.11.1, https://matplotlib.org/</dc:title>
     </cc:Agent>
    </dc:creator>
   </cc:Work>
  </rdf:RDF>
 </metadata>
 <defs>
  <style type="text/css">*{stroke-linejoin: round; stroke-linecap: butt}</style>
 </defs>
 <g id="figure_1">
  <g id="patch_1">
   <path d="M 0 528.394299 
L 650.03 528.394299 
L 650.03 0 
L 0 0 
z
" style="fill: #0d1117"/>
  </g>
  <g id="axes_1">
   <g id="patch_2">
    <path d="M 225.45725 430.308969 
L 424.57275 430.308969 
L 424.57275 32.077969 
L 225.45725 32.077969 
z
" style="fill: #0d1117"/>
   </g>
   <g id="patch_3">
    <path d="M 225.45725 430.308969 
L 291.829083 430.308969 
L 291.829083 363.937135 
L 225.45725 363.937135 
z
" clip-path="url(#p96929dac59)" style="fill: #238636; stroke: #0d1117; stroke-width: 2; stroke-linejoin: miter"/>
   </g>
   <g id="patch_4">
    <path d="M 291.829083 430.308969 
L 358.200917 430.308969 
L 358.200917 363.937135 
L 291.829083 363.937135 
z
" clip-path="url(#p96929dac59)" style="fill: #238636; stroke: #0d1117; stroke-width: 2; stroke-linejoin: miter"/>
   </g>
   <g id="patch_5">
    <path d="M 358.200917 430.308969 
L 424.57275 430.308969 
L 424.57275 363.937135 
L 358.200917 363.937135 
z
" clip-path="url(#p96929dac59)" style="fill: #238636; stroke: #0d1117; stroke-width: 2; stroke-linejoin: miter"/>
   </g>
   <g id="patch_6">
    <path d="M 225.45725 363.937135 
L 291.829083 363.937135 
L 291.829083 297.565302 
L 225.45725 297.565302 
z
" clip-path="url(#p96929dac59)" style="fill: #da3633; stroke: #0d1117; stroke-width: 2; stroke-linejoin: miter"/>
   </g>
   <g id="patch_7">
    <path d="M 291.829083 363.937135 
L 358.200917 363.937135 
L 358.200917 297.565302 
L 291.829083 297.565302 
z
" clip-path="url(#p96929dac59)" style="fill: #238636; stroke: #0d1117; stroke-width: 2; stroke-linejoin: miter"/>
   </g>
   <g id="patch_8">
    <path d="M 358.200917 363.937135 
L 424.57275 363.937135 
L 424.57275 297.565302 
L 358.200917 297.565302 
z
" clip-path="url(#p96929dac59)" style="fill: #238636; stroke: #0d1117; stroke-width: 2; stroke-linejoin: miter"/>
   </g>
   <g id="patch_9">
    <path d="M 225.45725 297.565302 
L 291.829083 297.565302 
L 291.829083 231.193469 
L 225.45725 231.193469 
z
" clip-path="url(#p96929dac59)" style="fill: #da3633; stroke: #0d1117; stroke-width: 2; stroke-linejoin: miter"/>
   </g>
   <g id="patch_10">
    <path d="M 291.829083 297.565302 
L 358.200917 297.565302 
L 358.200917 231.193469 
L 291.829083 231.193469 
z
" clip-path="url(#p96929dac59)" style="fill: #238636; stroke: #0d1117; stroke-width: 2; stroke-linejoin: miter"/>
   </g>
   <g id="patch_11">
    <path d="M 358.200917 297.565302 
L 424.57275 297.565302 
L 424.57275 231.193469 
L 358.200917 231.193469 
z
" clip-path="url(#p96929dac59)" style="fill: #238636; stroke: #0d1117; stroke-width: 2; stroke-linejoin: miter"/>
   </g>
   <g id="patch_12">
    <path d="M 225.45725 231.193469 
L 291.829083 231.193469 
L 291.829083 164.821635 
L 225.45725 164.821635 
z
" clip-path="url(#p96929dac59)" style="fill: #da3633; stroke: #0d1117; stroke-width: 2; stroke-linejoin: miter"/>
   </g>
   <g id="patch_13">
    <path d="M 291.829083 231.193469 
L 358.200917 231.193469 
L 358.200917 164.821635 
L 291.829083 164.821635 
z
" clip-path="url(#p96929dac59)" style="fill: #238636; stroke: #0d1117; stroke-width: 2; stroke-linejoin: miter"/>
   </g>
   <g id="patch_14">
    <path d="M 358.200917 231.193469 
L 424.57275 231.193469 
L 424.57275 164.821635 
L 358.200917 164.821635 
z
" clip-path="url(#p96929dac59)" style="fill: #238636; stroke: #0d1117; stroke-width: 2; stroke-linejoin: miter"/>
   </g>
   <g id="patch_15">
    <path d="M 225.45725 164.821635 
L 291.829083 164.821635 
L 291.829083 98.449802 
L 225.45725 98.449802 
z
" clip-path="url(#p96929dac59)" style="fill: #6e7681; stroke: #0d1117; stroke-width: 2; stroke-linejoin: miter"/>
   </g>
   <g id="patch_16">
    <path d="M 291.829083 164.821635 
L 358.200917 164.821635 
L 358.200917 98.449802 
L 291.829083 98.449802 
z
" clip-path="url(#p96929dac59)" style="fill: #238636; stroke: #0d1117; stroke-width: 2; stroke-linejoin: miter"/>
   </g>
   <g id="patch_17">
    <path d="M 358.200917 164.821635 
L 424.57275 164.821635 
L 424.57275 98.449802 
L 358.200917 98.449802 
z
" clip-path="url(#p96929dac59)" style="fill: #238636; stroke: #0d1117; stroke-width: 2; stroke-linejoin: miter"/>
   </g>
   <g id="patch_18">
    <path d="M 225.45725 98.449802 
L 291.829083 98.449802 
L 291.829083 32.077969 
L 225.45725 32.077969 
z
" clip-path="url(#p96929dac59)" style="fill: #6e7681; stroke: #0d1117; stroke-width: 2; stroke-linejoin: miter"/>
   </g>
   <g id="patch_19">
    <path d="M 291.829083 98.449802 
L 358.200917 98.449802 
L 358.200917 32.077969 
L 291.829083 32.077969 
z
" clip-path="url(#p96929dac59)" style="fill: #238636; stroke: #0d1117; stroke-width: 2; stroke-linejoin: miter"/>
   </g>
   <g id="patch_20">
    <path d="M 358.200917 98.449802 
L 424.57275 98.449802 
L 424.57275 32.077969 
L 358.200917 32.077969 
z
" clip-path="url(#p96929dac59)" style="fill: #238636; stroke: #0d1117; stroke-width: 2; stroke-linejoin: miter"/>
   </g>
   <g id="matplotlib.axis_1">
    <g id="xtick_1">
     <g id="line2d_1">
      <path d="M 258.643167 430.308969 
L 258.643167 32.077969 
" clip-path="url(#p96929dac59)" style="fill: none; stroke: #30363d; stroke-opacity: 0.6; stroke-width: 0.5; stroke-linecap: square"/>
     </g>
     <g id="line2d_2">
      <defs>
       <path id="m89e6efe9bc" d="M 0 0 
L 0 3.5 
" style="stroke: #8b949e; stroke-width: 0.8"/>
      </defs>
      <g>
       <use xlink:href="#m89e6efe9bc" x="258.643167" y="430.308969" style="fill: #8b949e; stroke: #8b949e; stroke-width: 0.8"/>
      </g>
     </g>
     <g id="text_1">
      <!-- Exp 002 -->
      <g style="fill: #8b949e" transform="translate(236.174807 445.666391) scale(0.11 -0.11)">
       <defs>
        <path id="DejaVuSans-28" d="M 628 4666 
L 3578 4666 
L 3578 4134 
L 1259 4134 
L 1259 2753 
L 3481 2753 
L 3481 2222 
L 1259 2222 
L 1259 531 
L 3634 531 
L 3634 0 
L 628 0 
L 628 4666 
z
" transform="scale(0.015625)"/>
        <path id="DejaVuSans-5b" d="M 3513 3500 
L 2247 1797 
L 3578 0 
L 2900 0 
L 1881 1375 
L 863 0 
L 184 0 
L 1544 1831 
L 300 3500 
L 978 3500 
L 1906 2253 
L 2834 3500 
L 3513 3500 
z
" transform="scale(0.015625)"/>
        <path id="DejaVuSans-53" d="M 1159 525 
L 1159 -1331 
L 581 -1331 
L 581 3500 
L 1159 3500 
L 1159 2969 
Q 1341 3281 1617 3432 
Q 1894 3584 2278 3584 
Q 2916 3584 3314 3078 
Q 3713 2572 3713 1747 
Q 3713 922 3314 415 
Q 2916 -91 2278 -91 
Q 1894 -91 1617 61 
Q 1341 213 1159 525 
z
M 3116 1747 
Q 3116 2381 2855 2742 
Q 2594 3103 2138 3103 
Q 1681 3103 1420 2742 
Q 1159 2381 1159 1747 
Q 1159 1113 1420 752 
Q 1681 391 2138 391 
Q 2594 391 2855 752 
Q 3116 1113 3116 1747 
z
" transform="scale(0.015625)"/>
        <path id="DejaVuSans-3" transform="scale(0.015625)"/>
        <path id="DejaVuSans-13" d="M 2034 4250 
Q 1547 4250 1301 3770 
Q 1056 3291 1056 2328 
Q 1056 1369 1301 889 
Q 1547 409 2034 409 
Q 2525 409 2770 889 
Q 3016 1369 3016 2328 
Q 3016 3291 2770 3770 
Q 2525 4250 2034 4250 
z
M 2034 4750 
Q 2819 4750 3233 4129 
Q 3647 3509 3647 2328 
Q 3647 1150 3233 529 
Q 2819 -91 2034 -91 
Q 1250 -91 836 529 
Q 422 1150 422 2328 
Q 422 3509 836 4129 
Q 1250 4750 2034 4750 
z
" transform="scale(0.015625)"/>
        <path id="DejaVuSans-15" d="M 1228 531 
L 3431 531 
L 3431 0 
L 469 0 
L 469 531 
Q 828 903 1448 1529 
Q 2069 2156 2228 2338 
Q 2531 2678 2651 2914 
Q 2772 3150 2772 3378 
Q 2772 3750 2511 3984 
Q 2250 4219 1831 4219 
Q 1534 4219 1204 4116 
Q 875 4013 500 3803 
L 500 4441 
Q 881 4594 1212 4672 
Q 1544 4750 1819 4750 
Q 2544 4750 2975 4387 
Q 3406 4025 3406 3419 
Q 3406 3131 3298 2873 
Q 3191 2616 2906 2266 
Q 2828 2175 2409 1742 
Q 1991 1309 1228 531 
z
" transform="scale(0.015625)"/>
       </defs>
       <use xlink:href="#DejaVuSans-28"/>
       <use xlink:href="#DejaVuSans-5b" transform="translate(63.1875 0)"/>
       <use xlink:href="#DejaVuSans-53" transform="translate(122.375 0)"/>
       <use xlink:href="#DejaVuSans-3" transform="translate(185.859375 0)"/>
       <use xlink:href="#DejaVuSans-13" transform="translate(217.640625 0)"/>
       <use xlink:href="#DejaVuSans-13" transform="translate(281.265625 0)"/>
       <use xlink:href="#DejaVuSans-15" transform="translate(344.890625 0)"/>
      </g>
     </g>
    </g>
    <g id="xtick_2">
     <g id="line2d_3">
      <path d="M 325.015 430.308969 
L 325.015 32.077969 
" clip-path="url(#p96929dac59)" style="fill: none; stroke: #30363d; stroke-opacity: 0.6; stroke-width: 0.5; stroke-linecap: square"/>
     </g>
     <g id="line2d_4">
      <g>
       <use xlink:href="#m89e6efe9bc" x="325.015" y="430.308969" style="fill: #8b949e; stroke: #8b949e; stroke-width: 0.8"/>
      </g>
     </g>
     <g id="text_2">
      <!-- Exp 003 -->
      <g style="fill: #8b949e" transform="translate(302.546641 445.666391) scale(0.11 -0.11)">
       <defs>
        <path id="DejaVuSans-16" d="M 2597 2516 
Q 3050 2419 3304 2112 
Q 3559 1806 3559 1356 
Q 3559 666 3084 287 
Q 2609 -91 1734 -91 
Q 1441 -91 1130 -33 
Q 819 25 488 141 
L 488 750 
Q 750 597 1062 519 
Q 1375 441 1716 441 
Q 2309 441 2620 675 
Q 2931 909 2931 1356 
Q 2931 1769 2642 2001 
Q 2353 2234 1838 2234 
L 1294 2234 
L 1294 2753 
L 1863 2753 
Q 2328 2753 2575 2939 
Q 2822 3125 2822 3475 
Q 2822 3834 2567 4026 
Q 2313 4219 1838 4219 
Q 1578 4219 1281 4162 
Q 984 4106 628 3988 
L 628 4550 
Q 988 4650 1302 4700 
Q 1616 4750 1894 4750 
Q 2613 4750 3031 4423 
Q 3450 4097 3450 3541 
Q 3450 3153 3228 2886 
Q 3006 2619 2597 2516 
z
" transform="scale(0.015625)"/>
       </defs>
       <use xlink:href="#DejaVuSans-28"/>
       <use xlink:href="#DejaVuSans-5b" transform="translate(63.1875 0)"/>
       <use xlink:href="#DejaVuSans-53" transform="translate(122.375 0)"/>
       <use xlink:href="#DejaVuSans-3" transform="translate(185.859375 0)"/>
       <use xlink:href="#DejaVuSans-13" transform="translate(217.640625 0)"/>
       <use xlink:href="#DejaVuSans-13" transform="translate(281.265625 0)"/>
       <use xlink:href="#DejaVuSans-16" transform="translate(344.890625 0)"/>
      </g>
     </g>
    </g>
    <g id="xtick_3">
     <g id="line2d_5">
      <path d="M 391.386833 430.308969 
L 391.386833 32.077969 
" clip-path="url(#p96929dac59)" style="fill: none; stroke: #30363d; stroke-opacity: 0.6; stroke-width: 0.5; stroke-linecap: square"/>
     </g>
     <g id="line2d_6">
      <g>
       <use xlink:href="#m89e6efe9bc" x="391.386833" y="430.308969" style="fill: #8b949e; stroke: #8b949e; stroke-width: 0.8"/>
      </g>
     </g>
     <g id="text_3">
      <!-- Exp 004 -->
      <g style="fill: #8b949e" transform="translate(368.918474 445.666391) scale(0.11 -0.11)">
       <defs>
        <path id="DejaVuSans-17" d="M 2419 4116 
L 825 1625 
L 2419 1625 
L 2419 4116 
z
M 2253 4666 
L 3047 4666 
L 3047 1625 
L 3713 1625 
L 3713 1100 
L 3047 1100 
L 3047 0 
L 2419 0 
L 2419 1100 
L 313 1100 
L 313 1709 
L 2253 4666 
z
" transform="scale(0.015625)"/>
       </defs>
       <use xlink:href="#DejaVuSans-28"/>
       <use xlink:href="#DejaVuSans-5b" transform="translate(63.1875 0)"/>
       <use xlink:href="#DejaVuSans-53" transform="translate(122.375 0)"/>
       <use xlink:href="#DejaVuSans-3" transform="translate(185.859375 0)"/>
       <use xlink:href="#DejaVuSans-13" transform="translate(217.640625 0)"/>
       <use xlink:href="#DejaVuSans-13" transform="translate(281.265625 0)"/>
       <use xlink:href="#DejaVuSans-17" transform="translate(344.890625 0)"/>
      </g>
     </g>
    </g>
   </g>
   <g id="matplotlib.axis_2">
    <g id="ytick_1">
     <g id="line2d_7">
      <path d="M 225.45725 397.123052 
L 424.57275 397.123052 
" clip-path="url(#p96929dac59)" style="fill: none; stroke: #30363d; stroke-opacity: 0.6; stroke-width: 0.5; stroke-linecap: square"/>
     </g>
     <g id="line2d_8">
      <defs>
       <path id="m0a60ea980d" d="M 0 0 
L -3.5 0 
" style="stroke: #8b949e; stroke-width: 0.8"/>
      </defs>
      <g>
       <use xlink:href="#m0a60ea980d" x="225.45725" y="397.123052" style="fill: #8b949e; stroke: #8b949e; stroke-width: 0.8"/>
      </g>
     </g>
     <g id="text_4">
      <!-- Positive -->
      <g style="fill: #8b949e" transform="translate(176.05225 401.302193) scale(0.11 -0.11)">
       <defs>
        <path id="DejaVuSans-33" d="M 1259 4147 
L 1259 2394 
L 2053 2394 
Q 2494 2394 2734 2622 
Q 2975 2850 2975 3272 
Q 2975 3691 2734 3919 
Q 2494 4147 2053 4147 
L 1259 4147 
z
M 628 4666 
L 2053 4666 
Q 2838 4666 3239 4311 
Q 3641 3956 3641 3272 
Q 3641 2581 3239 2228 
Q 2838 1875 2053 1875 
L 1259 1875 
L 1259 0 
L 628 0 
L 628 4666 
z
" transform="scale(0.015625)"/>
        <path id="DejaVuSans-52" d="M 1959 3097 
Q 1497 3097 1228 2736 
Q 959 2375 959 1747 
Q 959 1119 1226 758 
Q 1494 397 1959 397 
Q 2419 397 2687 759 
Q 2956 1122 2956 1747 
Q 2956 2369 2687 2733 
Q 2419 3097 1959 3097 
z
M 1959 3584 
Q 2709 3584 3137 3096 
Q 3566 2609 3566 1747 
Q 3566 888 3137 398 
Q 2709 -91 1959 -91 
Q 1206 -91 779 398 
Q 353 888 353 1747 
Q 353 2609 779 3096 
Q 1206 3584 1959 3584 
z
" transform="scale(0.015625)"/>
        <path id="DejaVuSans-56" d="M 2834 3397 
L 2834 2853 
Q 2591 2978 2328 3040 
Q 2066 3103 1784 3103 
Q 1356 3103 1142 2972 
Q 928 2841 928 2578 
Q 928 2378 1081 2264 
Q 1234 2150 1697 2047 
L 1894 2003 
Q 2506 1872 2764 1633 
Q 3022 1394 3022 966 
Q 3022 478 2636 193 
Q 2250 -91 1575 -91 
Q 1294 -91 989 -36 
Q 684 19 347 128 
L 347 722 
Q 666 556 975 473 
Q 1284 391 1588 391 
Q 1994 391 2212 530 
Q 2431 669 2431 922 
Q 2431 1156 2273 1281 
Q 2116 1406 1581 1522 
L 1381 1569 
Q 847 1681 609 1914 
Q 372 2147 372 2553 
Q 372 3047 722 3315 
Q 1072 3584 1716 3584 
Q 2034 3584 2315 3537 
Q 2597 3491 2834 3397 
z
" transform="scale(0.015625)"/>
        <path id="DejaVuSans-4c" d="M 603 3500 
L 1178 3500 
L 1178 0 
L 603 0 
L 603 3500 
z
M 603 4863 
L 1178 4863 
L 1178 4134 
L 603 4134 
L 603 4863 
z
" transform="scale(0.015625)"/>
        <path id="DejaVuSans-57" d="M 1172 4494 
L 1172 3500 
L 2356 3500 
L 2356 3053 
L 1172 3053 
L 1172 1153 
Q 1172 725 1289 603 
Q 1406 481 1766 481 
L 2356 481 
L 2356 0 
L 1766 0 
Q 1100 0 847 248 
Q 594 497 594 1153 
L 594 3053 
L 172 3053 
L 172 3500 
L 594 3500 
L 594 4494 
L 1172 4494 
z
" transform="scale(0.015625)"/>
        <path id="DejaVuSans-59" d="M 191 3500 
L 800 3500 
L 1894 563 
L 2988 3500 
L 3597 3500 
L 2284 0 
L 1503 0 
L 191 3500 
z
" transform="scale(0.015625)"/>
        <path id="DejaVuSans-48" d="M 3597 1894 
L 3597 1613 
L 953 1613 
Q 991 1019 1311 708 
Q 1631 397 2203 397 
Q 2534 397 2845 478 
Q 3156 559 3463 722 
L 3463 178 
Q 3153 47 2828 -22 
Q 2503 -91 2169 -91 
Q 1331 -91 842 396 
Q 353 884 353 1716 
Q 353 2575 817 3079 
Q 1281 3584 2069 3584 
Q 2775 3584 3186 3129 
Q 3597 2675 3597 1894 
z
M 3022 2063 
Q 3016 2534 2758 2815 
Q 2500 3097 2075 3097 
Q 1594 3097 1305 2825 
Q 1016 2553 972 2059 
L 3022 2063 
z
" transform="scale(0.015625)"/>
       </defs>
       <use xlink:href="#DejaVuSans-33"/>
       <use xlink:href="#DejaVuSans-52" transform="translate(56.734375 0)"/>
       <use xlink:href="#DejaVuSans-56" transform="translate(117.921875 0)"/>
       <use xlink:href="#DejaVuSans-4c" transform="translate(170.015625 0)"/>
       <use xlink:href="#DejaVuSans-57" transform="translate(197.796875 0)"/>
       <use xlink:href="#DejaVuSans-4c" transform="translate(237 0)"/>
       <use xlink:href="#DejaVuSans-59" transform="translate(264.78125 0)"/>
       <use xlink:href="#DejaVuSans-48" transform="translate(323.96875 0)"/>
      </g>
     </g>
    </g>
    <g id="ytick_2">
     <g id="line2d_9">
      <path d="M 225.45725 330.751219 
L 424.57275 330.751219 
" clip-path="url(#p96929dac59)" style="fill: none; stroke: #30363d; stroke-opacity: 0.6; stroke-width: 0.5; stroke-linecap: square"/>
     </g>
     <g id="line2d_10">
      <g>
       <use xlink:href="#m0a60ea980d" x="225.45725" y="330.751219" style="fill: #8b949e; stroke: #8b949e; stroke-width: 0.8"/>
      </g>
     </g>
     <g id="text_5">
      <!-- Obvious Negative -->
      <g style="fill: #8b949e" transform="translate(120.950844 334.930359) scale(0.11 -0.11)">
       <defs>
        <path id="DejaVuSans-32" d="M 2522 4238 
Q 1834 4238 1429 3725 
Q 1025 3213 1025 2328 
Q 1025 1447 1429 934 
Q 1834 422 2522 422 
Q 3209 422 3611 934 
Q 4013 1447 4013 2328 
Q 4013 3213 3611 3725 
Q 3209 4238 2522 4238 
z
M 2522 4750 
Q 3503 4750 4090 4092 
Q 4678 3434 4678 2328 
Q 4678 1225 4090 567 
Q 3503 -91 2522 -91 
Q 1538 -91 948 565 
Q 359 1222 359 2328 
Q 359 3434 948 4092 
Q 1538 4750 2522 4750 
z
" transform="scale(0.015625)"/>
        <path id="DejaVuSans-45" d="M 3116 1747 
Q 3116 2381 2855 2742 
Q 2594 3103 2138 3103 
Q 1681 3103 1420 2742 
Q 1159 2381 1159 1747 
Q 1159 1113 1420 752 
Q 1681 391 2138 391 
Q 2594 391 2855 752 
Q 3116 1113 3116 1747 
z
M 1159 2969 
Q 1341 3281 1617 3432 
Q 1894 3584 2278 3584 
Q 2916 3584 3314 3078 
Q 3713 2572 3713 1747 
Q 3713 922 3314 415 
Q 2916 -91 2278 -91 
Q 1894 -91 1617 61 
Q 1341 213 1159 525 
L 1159 0 
L 581 0 
L 581 4863 
L 1159 4863 
L 1159 2969 
z
" transform="scale(0.015625)"/>
        <path id="DejaVuSans-58" d="M 544 1381 
L 544 3500 
L 1119 3500 
L 1119 1403 
Q 1119 906 1312 657 
Q 1506 409 1894 409 
Q 2359 409 2629 706 
Q 2900 1003 2900 1516 
L 2900 3500 
L 3475 3500 
L 3475 0 
L 2900 0 
L 2900 538 
Q 2691 219 2414 64 
Q 2138 -91 1772 -91 
Q 1169 -91 856 284 
Q 544 659 544 1381 
z
M 1991 3584 
L 1991 3584 
z
" transform="scale(0.015625)"/>
        <path id="DejaVuSans-31" d="M 628 4666 
L 1478 4666 
L 3547 763 
L 3547 4666 
L 4159 4666 
L 4159 0 
L 3309 0 
L 1241 3903 
L 1241 0 
L 628 0 
L 628 4666 
z
" transform="scale(0.015625)"/>
        <path id="DejaVuSans-4a" d="M 2906 1791 
Q 2906 2416 2648 2759 
Q 2391 3103 1925 3103 
Q 1463 3103 1205 2759 
Q 947 2416 947 1791 
Q 947 1169 1205 825 
Q 1463 481 1925 481 
Q 2391 481 2648 825 
Q 2906 1169 2906 1791 
z
M 3481 434 
Q 3481 -459 3084 -895 
Q 2688 -1331 1869 -1331 
Q 1566 -1331 1297 -1286 
Q 1028 -1241 775 -1147 
L 775 -588 
Q 1028 -725 1275 -790 
Q 1522 -856 1778 -856 
Q 2344 -856 2625 -561 
Q 2906 -266 2906 331 
L 2906 616 
Q 2728 306 2450 153 
Q 2172 0 1784 0 
Q 1141 0 747 490 
Q 353 981 353 1791 
Q 353 2603 747 3093 
Q 1141 3584 1784 3584 
Q 2172 3584 2450 3431 
Q 2728 3278 2906 2969 
L 2906 3500 
L 3481 3500 
L 3481 434 
z
" transform="scale(0.015625)"/>
        <path id="DejaVuSans-44" d="M 2194 1759 
Q 1497 1759 1228 1600 
Q 959 1441 959 1056 
Q 959 750 1161 570 
Q 1363 391 1709 391 
Q 2188 391 2477 730 
Q 2766 1069 2766 1631 
L 2766 1759 
L 2194 1759 
z
M 3341 1997 
L 3341 0 
L 2766 0 
L 2766 531 
Q 2569 213 2275 61 
Q 1981 -91 1556 -91 
Q 1019 -91 701 211 
Q 384 513 384 1019 
Q 384 1609 779 1909 
Q 1175 2209 1959 2209 
L 2766 2209 
L 2766 2266 
Q 2766 2663 2505 2880 
Q 2244 3097 1772 3097 
Q 1472 3097 1187 3025 
Q 903 2953 641 2809 
L 641 3341 
Q 956 3463 1253 3523 
Q 1550 3584 1831 3584 
Q 2591 3584 2966 3190 
Q 3341 2797 3341 1997 
z
" transform="scale(0.015625)"/>
       </defs>
       <use xlink:href="#DejaVuSans-32"/>
       <use xlink:href="#DejaVuSans-45" transform="translate(78.71875 0)"/>
       <use xlink:href="#DejaVuSans-59" transform="translate(142.203125 0)"/>
       <use xlink:href="#DejaVuSans-4c" transform="translate(201.390625 0)"/>
       <use xlink:href="#DejaVuSans-52" transform="translate(229.171875 0)"/>
       <use xlink:href="#DejaVuSans-58" transform="translate(290.359375 0)"/>
       <use xlink:href="#DejaVuSans-56" transform="translate(353.734375 0)"/>
       <use xlink:href="#DejaVuSans-3" transform="translate(405.828125 0)"/>
       <use xlink:href="#DejaVuSans-31" transform="translate(437.609375 0)"/>
       <use xlink:href="#DejaVuSans-48" transform="translate(512.421875 0)"/>
       <use xlink:href="#DejaVuSans-4a" transform="translate(573.953125 0)"/>
       <use xlink:href="#DejaVuSans-44" transform="translate(637.4375 0)"/>
       <use xlink:href="#DejaVuSans-57" transform="translate(698.71875 0)"/>
       <use xlink:href="#DejaVuSans-4c" transform="translate(737.921875 0)"/>
       <use xlink:href="#DejaVuSans-59" transform="translate(765.703125 0)"/>
       <use xlink:href="#DejaVuSans-48" transform="translate(824.890625 0)"/>
      </g>
     </g>
    </g>
    <g id="ytick_3">
     <g id="line2d_11">
      <path d="M 225.45725 264.379385 
L 424.57275 264.379385 
" clip-path="url(#p96929dac59)" style="fill: none; stroke: #30363d; stroke-opacity: 0.6; stroke-width: 0.5; stroke-linecap: square"/>
     </g>
     <g id="line2d_12">
      <g>
       <use xlink:href="#m0a60ea980d" x="225.45725" y="264.379385" style="fill: #8b949e; stroke: #8b949e; stroke-width: 0.8"/>
      </g>
     </g>
     <g id="text_6">
      <!-- Hard Negative -->
      <g style="fill: #8b949e" transform="translate(139.265844 268.558526) scale(0.11 -0.11)">
       <defs>
        <path id="DejaVuSans-2b" d="M 628 4666 
L 1259 4666 
L 1259 2753 
L 3553 2753 
L 3553 4666 
L 4184 4666 
L 4184 0 
L 3553 0 
L 3553 2222 
L 1259 2222 
L 1259 0 
L 628 0 
L 628 4666 
z
" transform="scale(0.015625)"/>
        <path id="DejaVuSans-55" d="M 2631 2963 
Q 2534 3019 2420 3045 
Q 2306 3072 2169 3072 
Q 1681 3072 1420 2755 
Q 1159 2438 1159 1844 
L 1159 0 
L 581 0 
L 581 3500 
L 1159 3500 
L 1159 2956 
Q 1341 3275 1631 3429 
Q 1922 3584 2338 3584 
Q 2397 3584 2469 3576 
Q 2541 3569 2628 3553 
L 2631 2963 
z
" transform="scale(0.015625)"/>
        <path id="DejaVuSans-47" d="M 2906 2969 
L 2906 4863 
L 3481 4863 
L 3481 0 
L 2906 0 
L 2906 525 
Q 2725 213 2448 61 
Q 2172 -91 1784 -91 
Q 1150 -91 751 415 
Q 353 922 353 1747 
Q 353 2572 751 3078 
Q 1150 3584 1784 3584 
Q 2172 3584 2448 3432 
Q 2725 3281 2906 2969 
z
M 947 1747 
Q 947 1113 1208 752 
Q 1469 391 1925 391 
Q 2381 391 2643 752 
Q 2906 1113 2906 1747 
Q 2906 2381 2643 2742 
Q 2381 3103 1925 3103 
Q 1469 3103 1208 2742 
Q 947 2381 947 1747 
z
" transform="scale(0.015625)"/>
       </defs>
       <use xlink:href="#DejaVuSans-2b"/>
       <use xlink:href="#DejaVuSans-44" transform="translate(75.203125 0)"/>
       <use xlink:href="#DejaVuSans-55" transform="translate(136.484375 0)"/>
       <use xlink:href="#DejaVuSans-47" transform="translate(175.84375 0)"/>
       <use xlink:href="#DejaVuSans-3" transform="translate(239.328125 0)"/>
       <use xlink:href="#DejaVuSans-31" transform="translate(271.109375 0)"/>
       <use xlink:href="#DejaVuSans-48" transform="translate(345.921875 0)"/>
       <use xlink:href="#DejaVuSans-4a" transform="translate(407.453125 0)"/>
       <use xlink:href="#DejaVuSans-44" transform="translate(470.9375 0)"/>
       <use xlink:href="#DejaVuSans-57" transform="translate(532.21875 0)"/>
       <use xlink:href="#DejaVuSans-4c" transform="translate(571.421875 0)"/>
       <use xlink:href="#DejaVuSans-59" transform="translate(599.203125 0)"/>
       <use xlink:href="#DejaVuSans-48" transform="translate(658.390625 0)"/>
      </g>
     </g>
    </g>
    <g id="ytick_4">
     <g id="line2d_13">
      <path d="M 225.45725 198.007552 
L 424.57275 198.007552 
" clip-path="url(#p96929dac59)" style="fill: none; stroke: #30363d; stroke-opacity: 0.6; stroke-width: 0.5; stroke-linecap: square"/>
     </g>
     <g id="line2d_14">
      <g>
       <use xlink:href="#m0a60ea980d" x="225.45725" y="198.007552" style="fill: #8b949e; stroke: #8b949e; stroke-width: 0.8"/>
      </g>
     </g>
     <g id="text_7">
      <!-- Edge Case -->
      <g style="fill: #8b949e" transform="translate(160.354906 202.186693) scale(0.11 -0.11)">
       <defs>
        <path id="DejaVuSans-26" d="M 4122 4306 
L 4122 3641 
Q 3803 3938 3442 4084 
Q 3081 4231 2675 4231 
Q 1875 4231 1450 3742 
Q 1025 3253 1025 2328 
Q 1025 1406 1450 917 
Q 1875 428 2675 428 
Q 3081 428 3442 575 
Q 3803 722 4122 1019 
L 4122 359 
Q 3791 134 3420 21 
Q 3050 -91 2638 -91 
Q 1578 -91 968 557 
Q 359 1206 359 2328 
Q 359 3453 968 4101 
Q 1578 4750 2638 4750 
Q 3056 4750 3426 4639 
Q 3797 4528 4122 4306 
z
" transform="scale(0.015625)"/>
       </defs>
       <use xlink:href="#DejaVuSans-28"/>
       <use xlink:href="#DejaVuSans-47" transform="translate(63.1875 0)"/>
       <use xlink:href="#DejaVuSans-4a" transform="translate(126.671875 0)"/>
       <use xlink:href="#DejaVuSans-48" transform="translate(190.15625 0)"/>
       <use xlink:href="#DejaVuSans-3" transform="translate(251.6875 0)"/>
       <use xlink:href="#DejaVuSans-26" transform="translate(283.46875 0)"/>
       <use xlink:href="#DejaVuSans-44" transform="translate(353.296875 0)"/>
       <use xlink:href="#DejaVuSans-56" transform="translate(414.578125 0)"/>
       <use xlink:href="#DejaVuSans-48" transform="translate(466.671875 0)"/>
      </g>
     </g>
    </g>
    <g id="ytick_5">
     <g id="line2d_15">
      <path d="M 225.45725 131.635719 
L 424.57275 131.635719 
" clip-path="url(#p96929dac59)" style="fill: none; stroke: #30363d; stroke-opacity: 0.6; stroke-width: 0.5; stroke-linecap: square"/>
     </g>
     <g id="line2d_16">
      <g>
       <use xlink:href="#m0a60ea980d" x="225.45725" y="131.635719" style="fill: #8b949e; stroke: #8b949e; stroke-width: 0.8"/>
      </g>
     </g>
     <g id="text_8">
      <!-- Invalid Input -->
      <g style="fill: #8b949e" transform="translate(149.915219 135.814859) scale(0.11 -0.11)">
       <defs>
        <path id="DejaVuSans-2c" d="M 628 4666 
L 1259 4666 
L 1259 0 
L 628 0 
L 628 4666 
z
" transform="scale(0.015625)"/>
        <path id="DejaVuSans-51" d="M 3513 2113 
L 3513 0 
L 2938 0 
L 2938 2094 
Q 2938 2591 2744 2837 
Q 2550 3084 2163 3084 
Q 1697 3084 1428 2787 
Q 1159 2491 1159 1978 
L 1159 0 
L 581 0 
L 581 3500 
L 1159 3500 
L 1159 2956 
Q 1366 3272 1645 3428 
Q 1925 3584 2291 3584 
Q 2894 3584 3203 3211 
Q 3513 2838 3513 2113 
z
" transform="scale(0.015625)"/>
        <path id="DejaVuSans-4f" d="M 603 4863 
L 1178 4863 
L 1178 0 
L 603 0 
L 603 4863 
z
" transform="scale(0.015625)"/>
       </defs>
       <use xlink:href="#DejaVuSans-2c"/>
       <use xlink:href="#DejaVuSans-51" transform="translate(29.5 0)"/>
       <use xlink:href="#DejaVuSans-59" transform="translate(92.875 0)"/>
       <use xlink:href="#DejaVuSans-44" transform="translate(152.0625 0)"/>
       <use xlink:href="#DejaVuSans-4f" transform="translate(213.34375 0)"/>
       <use xlink:href="#DejaVuSans-4c" transform="translate(241.125 0)"/>
       <use xlink:href="#DejaVuSans-47" transform="translate(268.90625 0)"/>
       <use xlink:href="#DejaVuSans-3" transform="translate(332.390625 0)"/>
       <use xlink:href="#DejaVuSans-2c" transform="translate(364.171875 0)"/>
       <use xlink:href="#DejaVuSans-51" transform="translate(393.671875 0)"/>
       <use xlink:href="#DejaVuSans-53" transform="translate(457.046875 0)"/>
       <use xlink:href="#DejaVuSans-58" transform="translate(520.53125 0)"/>
       <use xlink:href="#DejaVuSans-57" transform="translate(583.90625 0)"/>
      </g>
     </g>
    </g>
    <g id="ytick_6">
     <g id="line2d_17">
      <path d="M 225.45725 65.263885 
L 424.57275 65.263885 
" clip-path="url(#p96929dac59)" style="fill: none; stroke: #30363d; stroke-opacity: 0.6; stroke-width: 0.5; stroke-linecap: square"/>
     </g>
     <g id="line2d_18">
      <g>
       <use xlink:href="#m0a60ea980d" x="225.45725" y="65.263885" style="fill: #8b949e; stroke: #8b949e; stroke-width: 0.8"/>
      </g>
     </g>
     <g id="text_9">
      <!-- Stability Repeat -->
      <g style="fill: #8b949e" transform="translate(131.22725 69.443026) scale(0.11 -0.11)">
       <defs>
        <path id="DejaVuSans-36" d="M 3425 4513 
L 3425 3897 
Q 3066 4069 2747 4153 
Q 2428 4238 2131 4238 
Q 1616 4238 1336 4038 
Q 1056 3838 1056 3469 
Q 1056 3159 1242 3001 
Q 1428 2844 1947 2747 
L 2328 2669 
Q 3034 2534 3370 2195 
Q 3706 1856 3706 1288 
Q 3706 609 3251 259 
Q 2797 -91 1919 -91 
Q 1588 -91 1214 -16 
Q 841 59 441 206 
L 441 856 
Q 825 641 1194 531 
Q 1563 422 1919 422 
Q 2459 422 2753 634 
Q 3047 847 3047 1241 
Q 3047 1584 2836 1778 
Q 2625 1972 2144 2069 
L 1759 2144 
Q 1053 2284 737 2584 
Q 422 2884 422 3419 
Q 422 4038 858 4394 
Q 1294 4750 2059 4750 
Q 2388 4750 2728 4690 
Q 3069 4631 3425 4513 
z
" transform="scale(0.015625)"/>
        <path id="DejaVuSans-5c" d="M 2059 -325 
Q 1816 -950 1584 -1140 
Q 1353 -1331 966 -1331 
L 506 -1331 
L 506 -850 
L 844 -850 
Q 1081 -850 1212 -737 
Q 1344 -625 1503 -206 
L 1606 56 
L 191 3500 
L 800 3500 
L 1894 763 
L 2988 3500 
L 3597 3500 
L 2059 -325 
z
" transform="scale(0.015625)"/>
        <path id="DejaVuSans-35" d="M 2841 2188 
Q 3044 2119 3236 1894 
Q 3428 1669 3622 1275 
L 4263 0 
L 3584 0 
L 2988 1197 
Q 2756 1666 2539 1819 
Q 2322 1972 1947 1972 
L 1259 1972 
L 1259 0 
L 628 0 
L 628 4666 
L 2053 4666 
Q 2853 4666 3247 4331 
Q 3641 3997 3641 3322 
Q 3641 2881 3436 2590 
Q 3231 2300 2841 2188 
z
M 1259 4147 
L 1259 2491 
L 2053 2491 
Q 2509 2491 2742 2702 
Q 2975 2913 2975 3322 
Q 2975 3731 2742 3939 
Q 2509 4147 2053 4147 
L 1259 4147 
z
" transform="scale(0.015625)"/>
       </defs>
       <use xlink:href="#DejaVuSans-36"/>
       <use xlink:href="#DejaVuSans-57" transform="translate(63.484375 0)"/>
       <use xlink:href="#DejaVuSans-44" transform="translate(102.6875 0)"/>
       <use xlink:href="#DejaVuSans-45" transform="translate(163.96875 0)"/>
       <use xlink:href="#DejaVuSans-4c" transform="translate(227.453125 0)"/>
       <use xlink:href="#DejaVuSans-4f" transform="translate(255.234375 0)"/>
       <use xlink:href="#DejaVuSans-4c" transform="translate(283.015625 0)"/>
       <use xlink:href="#DejaVuSans-57" transform="translate(310.796875 0)"/>
       <use xlink:href="#DejaVuSans-5c" transform="translate(350 0)"/>
       <use xlink:href="#DejaVuSans-3" transform="translate(409.1875 0)"/>
       <use xlink:href="#DejaVuSans-35" transform="translate(440.96875 0)"/>
       <use xlink:href="#DejaVuSans-48" transform="translate(505.96875 0)"/>
       <use xlink:href="#DejaVuSans-53" transform="translate(567.5 0)"/>
       <use xlink:href="#DejaVuSans-48" transform="translate(630.984375 0)"/>
       <use xlink:href="#DejaVuSans-44" transform="translate(692.515625 0)"/>
       <use xlink:href="#DejaVuSans-57" transform="translate(753.796875 0)"/>
      </g>
     </g>
    </g>
   </g>
   <g id="patch_21">
    <path d="M 225.45725 430.308969 
L 225.45725 32.077969 
" style="fill: none; stroke: #30363d; stroke-width: 0.8; stroke-linejoin: miter; stroke-linecap: square"/>
   </g>
   <g id="patch_22">
    <path d="M 225.45725 430.308969 
L 424.57275 430.308969 
" style="fill: none; stroke: #30363d; stroke-width: 0.8; stroke-linejoin: miter; stroke-linecap: square"/>
   </g>
   <g id="text_10">
    <!-- PASS -->
    <g style="fill: #f0f6fc" transform="translate(241.779417 400.24024) scale(0.12 -0.12)">
     <defs>
      <path id="DejaVuSans-Bold-33" d="M 588 4666 
L 2584 4666 
Q 3475 4666 3951 4270 
Q 4428 3875 4428 3144 
Q 4428 2409 3951 2014 
Q 3475 1619 2584 1619 
L 1791 1619 
L 1791 0 
L 588 0 
L 588 4666 
z
M 1791 3794 
L 1791 2491 
L 2456 2491 
Q 2806 2491 2997 2661 
Q 3188 2831 3188 3144 
Q 3188 3456 2997 3625 
Q 2806 3794 2456 3794 
L 1791 3794 
z
" transform="scale(0.015625)"/>
      <path id="DejaVuSans-Bold-24" d="M 3419 850 
L 1538 850 
L 1241 0 
L 31 0 
L 1759 4666 
L 3194 4666 
L 4922 0 
L 3713 0 
L 3419 850 
z
M 1838 1716 
L 3116 1716 
L 2478 3572 
L 1838 1716 
z
" transform="scale(0.015625)"/>
      <path id="DejaVuSans-Bold-36" d="M 3834 4519 
L 3834 3531 
Q 3450 3703 3084 3790 
Q 2719 3878 2394 3878 
Q 1963 3878 1756 3759 
Q 1550 3641 1550 3391 
Q 1550 3203 1689 3098 
Q 1828 2994 2194 2919 
L 2706 2816 
Q 3484 2659 3812 2340 
Q 4141 2022 4141 1434 
Q 4141 663 3683 286 
Q 3225 -91 2284 -91 
Q 1841 -91 1394 -6 
Q 947 78 500 244 
L 500 1259 
Q 947 1022 1364 901 
Q 1781 781 2169 781 
Q 2563 781 2772 912 
Q 2981 1044 2981 1288 
Q 2981 1506 2839 1625 
Q 2697 1744 2272 1838 
L 1806 1941 
Q 1106 2091 782 2419 
Q 459 2747 459 3303 
Q 459 4000 909 4375 
Q 1359 4750 2203 4750 
Q 2588 4750 2994 4692 
Q 3400 4634 3834 4519 
z
" transform="scale(0.015625)"/>
     </defs>
     <use xlink:href="#DejaVuSans-Bold-33"/>
     <use xlink:href="#DejaVuSans-Bold-24" transform="translate(64.125 0)"/>
     <use xlink:href="#DejaVuSans-Bold-36" transform="translate(141.515625 0)"/>
     <use xlink:href="#DejaVuSans-Bold-36" transform="translate(209.046875 0)"/>
    </g>
   </g>
   <g id="text_11">
    <!-- PASS -->
    <g style="fill: #f0f6fc" transform="translate(308.15125 400.24024) scale(0.12 -0.12)">
     <use xlink:href="#DejaVuSans-Bold-33"/>
     <use xlink:href="#DejaVuSans-Bold-24" transform="translate(64.125 0)"/>
     <use xlink:href="#DejaVuSans-Bold-36" transform="translate(141.515625 0)"/>
     <use xlink:href="#DejaVuSans-Bold-36" transform="translate(209.046875 0)"/>
    </g>
   </g>
   <g id="text_12">
    <!-- PASS -->
    <g style="fill: #f0f6fc" transform="translate(374.523083 400.24024) scale(0.12 -0.12)">
     <use xlink:href="#DejaVuSans-Bold-33"/>
     <use xlink:href="#DejaVuSans-Bold-24" transform="translate(64.125 0)"/>
     <use xlink:href="#DejaVuSans-Bold-36" transform="translate(141.515625 0)"/>
     <use xlink:href="#DejaVuSans-Bold-36" transform="translate(209.046875 0)"/>
    </g>
   </g>
   <g id="text_13">
    <!-- FAIL -->
    <g style="fill: #f0f6fc" transform="translate(244.533792 333.868406) scale(0.12 -0.12)">
     <defs>
      <path id="DejaVuSans-Bold-29" d="M 588 4666 
L 3834 4666 
L 3834 3756 
L 1791 3756 
L 1791 2888 
L 3713 2888 
L 3713 1978 
L 1791 1978 
L 1791 0 
L 588 0 
L 588 4666 
z
" transform="scale(0.015625)"/>
      <path id="DejaVuSans-Bold-2c" d="M 588 4666 
L 1791 4666 
L 1791 0 
L 588 0 
L 588 4666 
z
" transform="scale(0.015625)"/>
      <path id="DejaVuSans-Bold-2f" d="M 588 4666 
L 1791 4666 
L 1791 909 
L 3903 909 
L 3903 0 
L 588 0 
L 588 4666 
z
" transform="scale(0.015625)"/>
     </defs>
     <use xlink:href="#DejaVuSans-Bold-29"/>
     <use xlink:href="#DejaVuSans-Bold-24" transform="translate(56.84375 0)"/>
     <use xlink:href="#DejaVuSans-Bold-2c" transform="translate(134.234375 0)"/>
     <use xlink:href="#DejaVuSans-Bold-2f" transform="translate(171.4375 0)"/>
    </g>
   </g>
   <g id="text_14">
    <!-- PASS -->
    <g style="fill: #f0f6fc" transform="translate(308.15125 333.868406) scale(0.12 -0.12)">
     <use xlink:href="#DejaVuSans-Bold-33"/>
     <use xlink:href="#DejaVuSans-Bold-24" transform="translate(64.125 0)"/>
     <use xlink:href="#DejaVuSans-Bold-36" transform="translate(141.515625 0)"/>
     <use xlink:href="#DejaVuSans-Bold-36" transform="translate(209.046875 0)"/>
    </g>
   </g>
   <g id="text_15">
    <!-- PASS -->
    <g style="fill: #f0f6fc" transform="translate(374.523083 333.868406) scale(0.12 -0.12)">
     <use xlink:href="#DejaVuSans-Bold-33"/>
     <use xlink:href="#DejaVuSans-Bold-24" transform="translate(64.125 0)"/>
     <use xlink:href="#DejaVuSans-Bold-36" transform="translate(141.515625 0)"/>
     <use xlink:href="#DejaVuSans-Bold-36" transform="translate(209.046875 0)"/>
    </g>
   </g>
   <g id="text_16">
    <!-- FAIL -->
    <g style="fill: #f0f6fc" transform="translate(244.533792 267.496573) scale(0.12 -0.12)">
     <use xlink:href="#DejaVuSans-Bold-29"/>
     <use xlink:href="#DejaVuSans-Bold-24" transform="translate(56.84375 0)"/>
     <use xlink:href="#DejaVuSans-Bold-2c" transform="translate(134.234375 0)"/>
     <use xlink:href="#DejaVuSans-Bold-2f" transform="translate(171.4375 0)"/>
    </g>
   </g>
   <g id="text_17">
    <!-- PASS -->
    <g style="fill: #f0f6fc" transform="translate(308.15125 267.496573) scale(0.12 -0.12)">
     <use xlink:href="#DejaVuSans-Bold-33"/>
     <use xlink:href="#DejaVuSans-Bold-24" transform="translate(64.125 0)"/>
     <use xlink:href="#DejaVuSans-Bold-36" transform="translate(141.515625 0)"/>
     <use xlink:href="#DejaVuSans-Bold-36" transform="translate(209.046875 0)"/>
    </g>
   </g>
   <g id="text_18">
    <!-- PASS -->
    <g style="fill: #f0f6fc" transform="translate(374.523083 267.496573) scale(0.12 -0.12)">
     <use xlink:href="#DejaVuSans-Bold-33"/>
     <use xlink:href="#DejaVuSans-Bold-24" transform="translate(64.125 0)"/>
     <use xlink:href="#DejaVuSans-Bold-36" transform="translate(141.515625 0)"/>
     <use xlink:href="#DejaVuSans-Bold-36" transform="translate(209.046875 0)"/>
    </g>
   </g>
   <g id="text_19">
    <!-- FAIL -->
    <g style="fill: #f0f6fc" transform="translate(244.533792 201.12474) scale(0.12 -0.12)">
     <use xlink:href="#DejaVuSans-Bold-29"/>
     <use xlink:href="#DejaVuSans-Bold-24" transform="translate(56.84375 0)"/>
     <use xlink:href="#DejaVuSans-Bold-2c" transform="translate(134.234375 0)"/>
     <use xlink:href="#DejaVuSans-Bold-2f" transform="translate(171.4375 0)"/>
    </g>
   </g>
   <g id="text_20">
    <!-- PASS -->
    <g style="fill: #f0f6fc" transform="translate(308.15125 201.12474) scale(0.12 -0.12)">
     <use xlink:href="#DejaVuSans-Bold-33"/>
     <use xlink:href="#DejaVuSans-Bold-24" transform="translate(64.125 0)"/>
     <use xlink:href="#DejaVuSans-Bold-36" transform="translate(141.515625 0)"/>
     <use xlink:href="#DejaVuSans-Bold-36" transform="translate(209.046875 0)"/>
    </g>
   </g>
   <g id="text_21">
    <!-- PASS -->
    <g style="fill: #f0f6fc" transform="translate(374.523083 201.12474) scale(0.12 -0.12)">
     <use xlink:href="#DejaVuSans-Bold-33"/>
     <use xlink:href="#DejaVuSans-Bold-24" transform="translate(64.125 0)"/>
     <use xlink:href="#DejaVuSans-Bold-36" transform="translate(141.515625 0)"/>
     <use xlink:href="#DejaVuSans-Bold-36" transform="translate(209.046875 0)"/>
    </g>
   </g>
   <g id="text_22">
    <!-- N/A -->
    <g style="fill: #f0f6fc" transform="translate(246.786604 134.752906) scale(0.12 -0.12)">
     <defs>
      <path id="DejaVuSans-Bold-31" d="M 588 4666 
L 1931 4666 
L 3628 1466 
L 3628 4666 
L 4769 4666 
L 4769 0 
L 3425 0 
L 1728 3200 
L 1728 0 
L 588 0 
L 588 4666 
z
" transform="scale(0.015625)"/>
      <path id="DejaVuSans-Bold-12" d="M 1644 4666 
L 2338 4666 
L 691 -594 
L 0 -594 
L 1644 4666 
z
" transform="scale(0.015625)"/>
     </defs>
     <use xlink:href="#DejaVuSans-Bold-31"/>
     <use xlink:href="#DejaVuSans-Bold-12" transform="translate(83.6875 0)"/>
     <use xlink:href="#DejaVuSans-Bold-24" transform="translate(120.21875 0)"/>
    </g>
   </g>
   <g id="text_23">
    <!-- PASS -->
    <g style="fill: #f0f6fc" transform="translate(308.15125 134.752906) scale(0.12 -0.12)">
     <use xlink:href="#DejaVuSans-Bold-33"/>
     <use xlink:href="#DejaVuSans-Bold-24" transform="translate(64.125 0)"/>
     <use xlink:href="#DejaVuSans-Bold-36" transform="translate(141.515625 0)"/>
     <use xlink:href="#DejaVuSans-Bold-36" transform="translate(209.046875 0)"/>
    </g>
   </g>
   <g id="text_24">
    <!-- PASS -->
    <g style="fill: #f0f6fc" transform="translate(374.523083 134.752906) scale(0.12 -0.12)">
     <use xlink:href="#DejaVuSans-Bold-33"/>
     <use xlink:href="#DejaVuSans-Bold-24" transform="translate(64.125 0)"/>
     <use xlink:href="#DejaVuSans-Bold-36" transform="translate(141.515625 0)"/>
     <use xlink:href="#DejaVuSans-Bold-36" transform="translate(209.046875 0)"/>
    </g>
   </g>
   <g id="text_25">
    <!-- N/A -->
    <g style="fill: #f0f6fc" transform="translate(246.786604 68.381073) scale(0.12 -0.12)">
     <use xlink:href="#DejaVuSans-Bold-31"/>
     <use xlink:href="#DejaVuSans-Bold-12" transform="translate(83.6875 0)"/>
     <use xlink:href="#DejaVuSans-Bold-24" transform="translate(120.21875 0)"/>
    </g>
   </g>
   <g id="text_26">
    <!-- PASS -->
    <g style="fill: #f0f6fc" transform="translate(308.15125 68.381073) scale(0.12 -0.12)">
     <use xlink:href="#DejaVuSans-Bold-33"/>
     <use xlink:href="#DejaVuSans-Bold-24" transform="translate(64.125 0)"/>
     <use xlink:href="#DejaVuSans-Bold-36" transform="translate(141.515625 0)"/>
     <use xlink:href="#DejaVuSans-Bold-36" transform="translate(209.046875 0)"/>
    </g>
   </g>
   <g id="text_27">
    <!-- PASS -->
    <g style="fill: #f0f6fc" transform="translate(374.523083 68.381073) scale(0.12 -0.12)">
     <use xlink:href="#DejaVuSans-Bold-33"/>
     <use xlink:href="#DejaVuSans-Bold-24" transform="translate(64.125 0)"/>
     <use xlink:href="#DejaVuSans-Bold-36" transform="translate(141.515625 0)"/>
     <use xlink:href="#DejaVuSans-Bold-36" transform="translate(209.046875 0)"/>
    </g>
   </g>
   <g id="text_28">
    <!-- Источники: runtime_smoke_report.json (Exp 003, Exp 004); Exp 002 — из FINETUNING_ENGINEERING_REPORT.md (negative/edge smoke не пройден). N/A = -->
    <g style="fill: #8b949e" transform="translate(7.2 508.87008) scale(0.08 -0.08)">
     <defs>
      <path id="DejaVuSans-3ac" d="M 4159 4666 
L 4159 0 
L 3547 0 
L 3547 3903 
L 1478 0 
L 628 0 
L 628 4666 
L 1241 4666 
L 1241 763 
L 3309 4666 
L 4159 4666 
z
" transform="scale(0.015625)"/>
      <path id="DejaVuSans-3d5" d="M 3122 3366 
L 3122 2828 
Q 2878 2963 2633 3030 
Q 2388 3097 2138 3097 
Q 1578 3097 1268 2742 
Q 959 2388 959 1747 
Q 959 1106 1268 751 
Q 1578 397 2138 397 
Q 2388 397 2633 464 
Q 2878 531 3122 666 
L 3122 134 
Q 2881 22 2623 -34 
Q 2366 -91 2075 -91 
Q 1284 -91 818 406 
Q 353 903 353 1747 
Q 353 2603 823 3093 
Q 1294 3584 2113 3584 
Q 2378 3584 2631 3529 
Q 2884 3475 3122 3366 
z
" transform="scale(0.015625)"/>
      <path id="DejaVuSans-3d6" d="M 188 3500 
L 3541 3500 
L 3541 3041 
L 2147 3041 
L 2147 0 
L 1581 0 
L 1581 3041 
L 188 3041 
L 188 3500 
z
" transform="scale(0.015625)"/>
      <path id="DejaVuSans-3d2" d="M 1959 3097 
Q 1497 3097 1228 2736 
Q 959 2375 959 1747 
Q 959 1119 1226 758 
Q 1494 397 1959 397 
Q 2419 397 2687 759 
Q 2956 1122 2956 1747 
Q 2956 2369 2687 2733 
Q 2419 3097 1959 3097 
z
M 1959 3584 
Q 2709 3584 3137 3096 
Q 3566 2609 3566 1747 
Q 3566 888 3137 398 
Q 2709 -91 1959 -91 
Q 1206 -91 779 398 
Q 353 888 353 1747 
Q 353 2609 779 3096 
Q 1206 3584 1959 3584 
z
" transform="scale(0.015625)"/>
      <path id="DejaVuSans-3db" d="M 2625 0 
L 2625 1472 
L 1553 1472 
Q 1075 1472 756 1769 
Q 469 2038 469 2613 
L 469 3500 
L 1044 3500 
L 1044 2666 
Q 1044 2300 1206 2116 
Q 1372 1931 1697 1931 
L 2625 1931 
L 2625 3500 
L 3200 3500 
L 3200 0 
L 2625 0 
z
" transform="scale(0.015625)"/>
      <path id="DejaVuSans-3d1" d="M 581 3500 
L 1159 3500 
L 1159 2072 
L 3025 2072 
L 3025 3500 
L 3603 3500 
L 3603 0 
L 3025 0 
L 3025 1613 
L 1159 1613 
L 1159 0 
L 581 0 
L 581 3500 
z
" transform="scale(0.015625)"/>
      <path id="DejaVuSans-3cc" d="M 3578 3500 
L 3578 0 
L 3006 0 
L 3006 2809 
L 1319 0 
L 581 0 
L 581 3500 
L 1153 3500 
L 1153 697 
L 2838 3500 
L 3578 3500 
z
" transform="scale(0.015625)"/>
      <path id="DejaVuSans-3ce" d="M 581 3500 
L 1153 3500 
L 1153 1856 
L 2775 3500 
L 3481 3500 
L 2144 2147 
L 3653 0 
L 3009 0 
L 1769 1766 
L 1153 1141 
L 1153 0 
L 581 0 
L 581 3500 
z
" transform="scale(0.015625)"/>
      <path id="DejaVuSans-1d" d="M 750 794 
L 1409 794 
L 1409 0 
L 750 0 
L 750 794 
z
M 750 3309 
L 1409 3309 
L 1409 2516 
L 750 2516 
L 750 3309 
z
" transform="scale(0.015625)"/>
      <path id="DejaVuSans-50" d="M 3328 2828 
Q 3544 3216 3844 3400 
Q 4144 3584 4550 3584 
Q 5097 3584 5394 3201 
Q 5691 2819 5691 2113 
L 5691 0 
L 5113 0 
L 5113 2094 
Q 5113 2597 4934 2840 
Q 4756 3084 4391 3084 
Q 3944 3084 3684 2787 
Q 3425 2491 3425 1978 
L 3425 0 
L 2847 0 
L 2847 2094 
Q 2847 2600 2669 2842 
Q 2491 3084 2119 3084 
Q 1678 3084 1418 2786 
Q 1159 2488 1159 1978 
L 1159 0 
L 581 0 
L 581 3500 
L 1159 3500 
L 1159 2956 
Q 1356 3278 1631 3431 
Q 1906 3584 2284 3584 
Q 2666 3584 2933 3390 
Q 3200 3197 3328 2828 
z
" transform="scale(0.015625)"/>
      <path id="DejaVuSans-42" d="M 3263 -1063 
L 3263 -1509 
L -63 -1509 
L -63 -1063 
L 3263 -1063 
z
" transform="scale(0.015625)"/>
      <path id="DejaVuSans-4e" d="M 581 4863 
L 1159 4863 
L 1159 1991 
L 2875 3500 
L 3609 3500 
L 1753 1863 
L 3688 0 
L 2938 0 
L 1159 1709 
L 1159 0 
L 581 0 
L 581 4863 
z
" transform="scale(0.015625)"/>
      <path id="DejaVuSans-11" d="M 684 794 
L 1344 794 
L 1344 0 
L 684 0 
L 684 794 
z
" transform="scale(0.015625)"/>
      <path id="DejaVuSans-4d" d="M 603 3500 
L 1178 3500 
L 1178 -63 
Q 1178 -731 923 -1031 
Q 669 -1331 103 -1331 
L -116 -1331 
L -116 -844 
L 38 -844 
Q 366 -844 484 -692 
Q 603 -541 603 -63 
L 603 3500 
z
M 603 4863 
L 1178 4863 
L 1178 4134 
L 603 4134 
L 603 4863 
z
" transform="scale(0.015625)"/>
      <path id="DejaVuSans-b" d="M 1984 4856 
Q 1566 4138 1362 3434 
Q 1159 2731 1159 2009 
Q 1159 1288 1364 580 
Q 1569 -128 1984 -844 
L 1484 -844 
Q 1016 -109 783 600 
Q 550 1309 550 2009 
Q 550 2706 781 3412 
Q 1013 4119 1484 4856 
L 1984 4856 
z
" transform="scale(0.015625)"/>
      <path id="DejaVuSans-f" d="M 750 794 
L 1409 794 
L 1409 256 
L 897 -744 
L 494 -744 
L 750 256 
L 750 794 
z
" transform="scale(0.015625)"/>
      <path id="DejaVuSans-c" d="M 513 4856 
L 1013 4856 
Q 1481 4119 1714 3412 
Q 1947 2706 1947 2009 
Q 1947 1309 1714 600 
Q 1481 -109 1013 -844 
L 513 -844 
Q 928 -128 1133 580 
Q 1338 1288 1338 2009 
Q 1338 2731 1133 3434 
Q 928 4138 513 4856 
z
" transform="scale(0.015625)"/>
      <path id="DejaVuSans-1e" d="M 750 3309 
L 1409 3309 
L 1409 2516 
L 750 2516 
L 750 3309 
z
M 750 794 
L 1409 794 
L 1409 256 
L 897 -744 
L 494 -744 
L 750 256 
L 750 794 
z
" transform="scale(0.015625)"/>
      <path id="DejaVuSans-af6" d="M 313 1978 
L 6088 1978 
L 6088 1528 
L 313 1528 
L 313 1978 
z
" transform="scale(0.015625)"/>
      <path id="DejaVuSans-3cb" d="M 2206 1888 
Q 2594 1813 2809 1584 
Q 3025 1356 3025 1019 
Q 3025 478 2622 193 
Q 2219 -91 1475 -91 
Q 1225 -91 961 -47 
Q 697 -3 416 84 
L 416 619 
Q 638 503 903 445 
Q 1169 388 1459 388 
Q 1931 388 2195 563 
Q 2459 738 2459 1019 
Q 2459 1294 2225 1461 
Q 1991 1628 1563 1628 
L 1100 1628 
L 1100 2103 
L 1584 2103 
Q 1947 2103 2158 2242 
Q 2369 2381 2369 2600 
Q 2369 2800 2151 2944 
Q 1934 3088 1563 3088 
Q 1341 3088 1089 3047 
Q 838 3006 534 2916 
L 534 3438 
Q 841 3513 1106 3550 
Q 1372 3588 1609 3588 
Q 2222 3588 2576 3342 
Q 2931 3097 2931 2656 
Q 2931 2366 2743 2164 
Q 2556 1963 2206 1888 
z
" transform="scale(0.015625)"/>
      <path id="DejaVuSans-29" d="M 628 4666 
L 3309 4666 
L 3309 4134 
L 1259 4134 
L 1259 2759 
L 3109 2759 
L 3109 2228 
L 1259 2228 
L 1259 0 
L 628 0 
L 628 4666 
z
" transform="scale(0.015625)"/>
      <path id="DejaVuSans-37" d="M -19 4666 
L 3928 4666 
L 3928 4134 
L 2272 4134 
L 2272 0 
L 1638 0 
L 1638 4134 
L -19 4134 
L -19 4666 
z
" transform="scale(0.015625)"/>
      <path id="DejaVuSans-38" d="M 556 4666 
L 1191 4666 
L 1191 1831 
Q 1191 1081 1462 751 
Q 1734 422 2344 422 
Q 2950 422 3222 751 
Q 3494 1081 3494 1831 
L 3494 4666 
L 4128 4666 
L 4128 1753 
Q 4128 841 3676 375 
Q 3225 -91 2344 -91 
Q 1459 -91 1007 375 
Q 556 841 556 1753 
L 556 4666 
z
" transform="scale(0.015625)"/>
      <path id="DejaVuSans-2a" d="M 3809 666 
L 3809 1919 
L 2778 1919 
L 2778 2438 
L 4434 2438 
L 4434 434 
Q 4069 175 3628 42 
Q 3188 -91 2688 -91 
Q 1594 -91 976 548 
Q 359 1188 359 2328 
Q 359 3472 976 4111 
Q 1594 4750 2688 4750 
Q 3144 4750 3555 4637 
Q 3966 4525 4313 4306 
L 4313 3634 
Q 3963 3931 3569 4081 
Q 3175 4231 2741 4231 
Q 1884 4231 1454 3753 
Q 1025 3275 1025 2328 
Q 1025 1384 1454 906 
Q 1884 428 2741 428 
Q 3075 428 3337 486 
Q 3600 544 3809 666 
z
" transform="scale(0.015625)"/>
      <path id="DejaVuSans-12" d="M 1625 4666 
L 2156 4666 
L 531 -594 
L 0 -594 
L 1625 4666 
z
" transform="scale(0.015625)"/>
      <path id="DejaVuSans-3c9" d="M 3597 1894 
L 3597 1613 
L 953 1613 
Q 991 1019 1311 708 
Q 1631 397 2203 397 
Q 2534 397 2845 478 
Q 3156 559 3463 722 
L 3463 178 
Q 3153 47 2828 -22 
Q 2503 -91 2169 -91 
Q 1331 -91 842 396 
Q 353 884 353 1716 
Q 353 2575 817 3079 
Q 1281 3584 2069 3584 
Q 2775 3584 3186 3129 
Q 3597 2675 3597 1894 
z
M 3022 2063 
Q 3016 2534 2758 2815 
Q 2500 3097 2075 3097 
Q 1594 3097 1305 2825 
Q 1016 2553 972 2059 
L 3022 2063 
z
" transform="scale(0.015625)"/>
      <path id="DejaVuSans-3d3" d="M 3603 3500 
L 3603 0 
L 3025 0 
L 3025 3041 
L 1159 3041 
L 1159 0 
L 581 0 
L 581 3500 
L 3603 3500 
z
" transform="scale(0.015625)"/>
      <path id="DejaVuSans-3d4" d="M 1159 525 
L 1159 -1331 
L 581 -1331 
L 581 3500 
L 1159 3500 
L 1159 2969 
Q 1341 3281 1617 3432 
Q 1894 3584 2278 3584 
Q 2916 3584 3314 3078 
Q 3713 2572 3713 1747 
Q 3713 922 3314 415 
Q 2916 -91 2278 -91 
Q 1894 -91 1617 61 
Q 1341 213 1159 525 
z
M 3116 1747 
Q 3116 2381 2855 2742 
Q 2594 3103 2138 3103 
Q 1681 3103 1420 2742 
Q 1159 2381 1159 1747 
Q 1159 1113 1420 752 
Q 1681 391 2138 391 
Q 2594 391 2855 752 
Q 3116 1113 3116 1747 
z
" transform="scale(0.015625)"/>
      <path id="DejaVuSans-3cd" d="M 3578 3500 
L 3578 0 
L 3006 0 
L 3006 2809 
L 1319 0 
L 581 0 
L 581 3500 
L 1153 3500 
L 1153 697 
L 2838 3500 
L 3578 3500 
z
M 1103 4862 
L 1472 4862 
Q 1506 4628 1657 4510 
Q 1809 4393 2081 4393 
Q 2350 4393 2500 4509 
Q 2650 4625 2690 4862 
L 3059 4862 
Q 3028 4415 2781 4190 
Q 2534 3965 2081 3965 
Q 1628 3965 1381 4190 
Q 1134 4415 1103 4862 
z
" transform="scale(0.015625)"/>
      <path id="DejaVuSans-3c8" d="M 1384 459 
L 3053 459 
L 3053 3041 
L 1844 3041 
L 1844 2603 
Q 1844 1316 1475 628 
L 1384 459 
z
M 550 459 
Q 834 584 959 850 
Q 1266 1509 1266 2838 
L 1266 3500 
L 3631 3500 
L 3631 459 
L 4091 459 
L 4091 -884 
L 3631 -884 
L 3631 0 
L 794 0 
L 794 -884 
L 334 -884 
L 334 459 
L 550 459 
z
" transform="scale(0.015625)"/>
      <path id="DejaVuSans-24" d="M 2188 4044 
L 1331 1722 
L 3047 1722 
L 2188 4044 
z
M 1831 4666 
L 2547 4666 
L 4325 0 
L 3669 0 
L 3244 1197 
L 1141 1197 
L 716 0 
L 50 0 
L 1831 4666 
z
" transform="scale(0.015625)"/>
      <path id="DejaVuSans-20" d="M 678 2906 
L 4684 2906 
L 4684 2381 
L 678 2381 
L 678 2906 
z
M 678 1631 
L 4684 1631 
L 4684 1100 
L 678 1100 
L 678 1631 
z
" transform="scale(0.015625)"/>
     </defs>
     <use xlink:href="#DejaVuSans-3ac"/>
     <use xlink:href="#DejaVuSans-3d5" transform="translate(74.8125 0)"/>
     <use xlink:href="#DejaVuSans-3d6" transform="translate(129.796875 0)"/>
     <use xlink:href="#DejaVuSans-3d2" transform="translate(188.046875 0)"/>
     <use xlink:href="#DejaVuSans-3db" transform="translate(249.234375 0)"/>
     <use xlink:href="#DejaVuSans-3d1" transform="translate(308.3125 0)"/>
     <use xlink:href="#DejaVuSans-3cc" transform="translate(373.6875 0)"/>
     <use xlink:href="#DejaVuSans-3ce" transform="translate(438.671875 0)"/>
     <use xlink:href="#DejaVuSans-3cc" transform="translate(499.078125 0)"/>
     <use xlink:href="#DejaVuSans-1d" transform="translate(564.0625 0)"/>
     <use xlink:href="#DejaVuSans-3" transform="translate(597.75 0)"/>
     <use xlink:href="#DejaVuSans-55" transform="translate(629.53125 0)"/>
     <use xlink:href="#DejaVuSans-58" transform="translate(670.640625 0)"/>
     <use xlink:href="#DejaVuSans-51" transform="translate(734.015625 0)"/>
     <use xlink:href="#DejaVuSans-57" transform="translate(797.390625 0)"/>
     <use xlink:href="#DejaVuSans-4c" transform="translate(836.59375 0)"/>
     <use xlink:href="#DejaVuSans-50" transform="translate(864.375 0)"/>
     <use xlink:href="#DejaVuSans-48" transform="translate(961.78125 0)"/>
     <use xlink:href="#DejaVuSans-42" transform="translate(1023.3125 0)"/>
     <use xlink:href="#DejaVuSans-56" transform="translate(1073.3125 0)"/>
     <use xlink:href="#DejaVuSans-50" transform="translate(1125.40625 0)"/>
     <use xlink:href="#DejaVuSans-52" transform="translate(1222.8125 0)"/>
     <use xlink:href="#DejaVuSans-4e" transform="translate(1284 0)"/>
     <use xlink:href="#DejaVuSans-48" transform="translate(1338.34375 0)"/>
     <use xlink:href="#DejaVuSans-42" transform="translate(1399.875 0)"/>
     <use xlink:href="#DejaVuSans-55" transform="translate(1449.875 0)"/>
     <use xlink:href="#DejaVuSans-48" transform="translate(1488.78125 0)"/>
     <use xlink:href="#DejaVuSans-53" transform="translate(1550.3125 0)"/>
     <use xlink:href="#DejaVuSans-52" transform="translate(1613.796875 0)"/>
     <use xlink:href="#DejaVuSans-55" transform="translate(1674.984375 0)"/>
     <use xlink:href="#DejaVuSans-57" transform="translate(1716.09375 0)"/>
     <use xlink:href="#DejaVuSans-11" transform="translate(1755.296875 0)"/>
     <use xlink:href="#DejaVuSans-4d" transform="translate(1787.078125 0)"/>
     <use xlink:href="#DejaVuSans-56" transform="translate(1814.859375 0)"/>
     <use xlink:href="#DejaVuSans-52" transform="translate(1866.953125 0)"/>
     <use xlink:href="#DejaVuSans-51" transform="translate(1928.140625 0)"/>
     <use xlink:href="#DejaVuSans-3" transform="translate(1991.515625 0)"/>
     <use xlink:href="#DejaVuSans-b" transform="translate(2023.296875 0)"/>
     <use xlink:href="#DejaVuSans-28" transform="translate(2062.3125 0)"/>
     <use xlink:href="#DejaVuSans-5b" transform="translate(2125.5 0)"/>
     <use xlink:href="#DejaVuSans-53" transform="translate(2184.6875 0)"/>
     <use xlink:href="#DejaVuSans-3" transform="translate(2248.171875 0)"/>
     <use xlink:href="#DejaVuSans-13" transform="translate(2279.953125 0)"/>
     <use xlink:href="#DejaVuSans-13" transform="translate(2343.578125 0)"/>
     <use xlink:href="#DejaVuSans-16" transform="translate(2407.203125 0)"/>
     <use xlink:href="#DejaVuSans-f" transform="translate(2470.828125 0)"/>
     <use xlink:href="#DejaVuSans-3" transform="translate(2502.609375 0)"/>
     <use xlink:href="#DejaVuSans-28" transform="translate(2534.390625 0)"/>
     <use xlink:href="#DejaVuSans-5b" transform="translate(2597.578125 0)"/>
     <use xlink:href="#DejaVuSans-53" transform="translate(2656.765625 0)"/>
     <use xlink:href="#DejaVuSans-3" transform="translate(2720.25 0)"/>
     <use xlink:href="#DejaVuSans-13" transform="translate(2752.03125 0)"/>
     <use xlink:href="#DejaVuSans-13" transform="translate(2815.65625 0)"/>
     <use xlink:href="#DejaVuSans-17" transform="translate(2879.28125 0)"/>
     <use xlink:href="#DejaVuSans-c" transform="translate(2942.90625 0)"/>
     <use xlink:href="#DejaVuSans-1e" transform="translate(2981.921875 0)"/>
     <use xlink:href="#DejaVuSans-3" transform="translate(3015.609375 0)"/>
     <use xlink:href="#DejaVuSans-28" transform="translate(3047.390625 0)"/>
     <use xlink:href="#DejaVuSans-5b" transform="translate(3110.578125 0)"/>
     <use xlink:href="#DejaVuSans-53" transform="translate(3169.765625 0)"/>
     <use xlink:href="#DejaVuSans-3" transform="translate(3233.25 0)"/>
     <use xlink:href="#DejaVuSans-13" transform="translate(3265.03125 0)"/>
     <use xlink:href="#DejaVuSans-13" transform="translate(3328.65625 0)"/>
     <use xlink:href="#DejaVuSans-15" transform="translate(3392.28125 0)"/>
     <use xlink:href="#DejaVuSans-3" transform="translate(3455.90625 0)"/>
     <use xlink:href="#DejaVuSans-af6" transform="translate(3487.6875 0)"/>
     <use xlink:href="#DejaVuSans-3" transform="translate(3587.6875 0)"/>
     <use xlink:href="#DejaVuSans-3cc" transform="translate(3619.46875 0)"/>
     <use xlink:href="#DejaVuSans-3cb" transform="translate(3684.453125 0)"/>
     <use xlink:href="#DejaVuSans-3" transform="translate(3737.625 0)"/>
     <use xlink:href="#DejaVuSans-29" transform="translate(3769.40625 0)"/>
     <use xlink:href="#DejaVuSans-2c" transform="translate(3826.921875 0)"/>
     <use xlink:href="#DejaVuSans-31" transform="translate(3856.421875 0)"/>
     <use xlink:href="#DejaVuSans-28" transform="translate(3931.234375 0)"/>
     <use xlink:href="#DejaVuSans-37" transform="translate(3994.421875 0)"/>
     <use xlink:href="#DejaVuSans-38" transform="translate(4055.5 0)"/>
     <use xlink:href="#DejaVuSans-31" transform="translate(4128.6875 0)"/>
     <use xlink:href="#DejaVuSans-2c" transform="translate(4203.5 0)"/>
     <use xlink:href="#DejaVuSans-31" transform="translate(4233 0)"/>
     <use xlink:href="#DejaVuSans-2a" transform="translate(4307.8125 0)"/>
     <use xlink:href="#DejaVuSans-42" transform="translate(4385.296875 0)"/>
     <use xlink:href="#DejaVuSans-28" transform="translate(4435.296875 0)"/>
     <use xlink:href="#DejaVuSans-31" transform="translate(4498.484375 0)"/>
     <use xlink:href="#DejaVuSans-2a" transform="translate(4573.296875 0)"/>
     <use xlink:href="#DejaVuSans-2c" transform="translate(4650.78125 0)"/>
     <use xlink:href="#DejaVuSans-31" transform="translate(4680.28125 0)"/>
     <use xlink:href="#DejaVuSans-28" transform="translate(4755.09375 0)"/>
     <use xlink:href="#DejaVuSans-28" transform="translate(4818.28125 0)"/>
     <use xlink:href="#DejaVuSans-35" transform="translate(4881.46875 0)"/>
     <use xlink:href="#DejaVuSans-2c" transform="translate(4950.953125 0)"/>
     <use xlink:href="#DejaVuSans-31" transform="translate(4980.453125 0)"/>
     <use xlink:href="#DejaVuSans-2a" transform="translate(5055.265625 0)"/>
     <use xlink:href="#DejaVuSans-42" transform="translate(5132.75 0)"/>
     <use xlink:href="#DejaVuSans-35" transform="translate(5182.75 0)"/>
     <use xlink:href="#DejaVuSans-28" transform="translate(5252.234375 0)"/>
     <use xlink:href="#DejaVuSans-33" transform="translate(5315.421875 0)"/>
     <use xlink:href="#DejaVuSans-32" transform="translate(5375.71875 0)"/>
     <use xlink:href="#DejaVuSans-35" transform="translate(5454.4375 0)"/>
     <use xlink:href="#DejaVuSans-37" transform="translate(5516.640625 0)"/>
     <use xlink:href="#DejaVuSans-11" transform="translate(5565.859375 0)"/>
     <use xlink:href="#DejaVuSans-50" transform="translate(5597.640625 0)"/>
     <use xlink:href="#DejaVuSans-47" transform="translate(5695.046875 0)"/>
     <use xlink:href="#DejaVuSans-3" transform="translate(5758.53125 0)"/>
     <use xlink:href="#DejaVuSans-b" transform="translate(5790.3125 0)"/>
     <use xlink:href="#DejaVuSans-51" transform="translate(5829.328125 0)"/>
     <use xlink:href="#DejaVuSans-48" transform="translate(5892.703125 0)"/>
     <use xlink:href="#DejaVuSans-4a" transform="translate(5954.234375 0)"/>
     <use xlink:href="#DejaVuSans-44" transform="translate(6017.71875 0)"/>
     <use xlink:href="#DejaVuSans-57" transform="translate(6079 0)"/>
     <use xlink:href="#DejaVuSans-4c" transform="translate(6118.203125 0)"/>
     <use xlink:href="#DejaVuSans-59" transform="translate(6145.984375 0)"/>
     <use xlink:href="#DejaVuSans-48" transform="translate(6205.171875 0)"/>
     <use xlink:href="#DejaVuSans-12" transform="translate(6266.703125 0)"/>
     <use xlink:href="#DejaVuSans-48" transform="translate(6300.390625 0)"/>
     <use xlink:href="#DejaVuSans-47" transform="translate(6361.921875 0)"/>
     <use xlink:href="#DejaVuSans-4a" transform="translate(6425.40625 0)"/>
     <use xlink:href="#DejaVuSans-48" transform="translate(6488.890625 0)"/>
     <use xlink:href="#DejaVuSans-3" transform="translate(6550.421875 0)"/>
     <use xlink:href="#DejaVuSans-56" transform="translate(6582.203125 0)"/>
     <use xlink:href="#DejaVuSans-50" transform="translate(6634.296875 0)"/>
     <use xlink:href="#DejaVuSans-52" transform="translate(6731.703125 0)"/>
     <use xlink:href="#DejaVuSans-4e" transform="translate(6792.890625 0)"/>
     <use xlink:href="#DejaVuSans-48" transform="translate(6847.234375 0)"/>
     <use xlink:href="#DejaVuSans-3" transform="translate(6908.765625 0)"/>
     <use xlink:href="#DejaVuSans-3d1" transform="translate(6940.546875 0)"/>
     <use xlink:href="#DejaVuSans-3c9" transform="translate(7005.921875 0)"/>
     <use xlink:href="#DejaVuSans-3" transform="translate(7067.453125 0)"/>
     <use xlink:href="#DejaVuSans-3d3" transform="translate(7099.234375 0)"/>
     <use xlink:href="#DejaVuSans-3d4" transform="translate(7164.609375 0)"/>
     <use xlink:href="#DejaVuSans-3d2" transform="translate(7228.09375 0)"/>
     <use xlink:href="#DejaVuSans-3cd" transform="translate(7289.28125 0)"/>
     <use xlink:href="#DejaVuSans-3c8" transform="translate(7354.265625 0)"/>
     <use xlink:href="#DejaVuSans-3c9" transform="translate(7423.40625 0)"/>
     <use xlink:href="#DejaVuSans-3d1" transform="translate(7484.9375 0)"/>
     <use xlink:href="#DejaVuSans-c" transform="translate(7550.3125 0)"/>
     <use xlink:href="#DejaVuSans-11" transform="translate(7589.328125 0)"/>
     <use xlink:href="#DejaVuSans-3" transform="translate(7621.109375 0)"/>
     <use xlink:href="#DejaVuSans-31" transform="translate(7652.890625 0)"/>
     <use xlink:href="#DejaVuSans-12" transform="translate(7727.703125 0)"/>
     <use xlink:href="#DejaVuSans-24" transform="translate(7761.390625 0)"/>
     <use xlink:href="#DejaVuSans-3" transform="translate(7829.796875 0)"/>
     <use xlink:href="#DejaVuSans-20" transform="translate(7861.578125 0)"/>
    </g>
    <!-- категория не зафиксирована в отчёте. -->
    <g style="fill: #8b949e" transform="translate(242.404375 518.471642) scale(0.08 -0.08)">
     <defs>
      <path id="DejaVuSans-3c4" d="M 2194 1759 
Q 1497 1759 1228 1600 
Q 959 1441 959 1056 
Q 959 750 1161 570 
Q 1363 391 1709 391 
Q 2188 391 2477 730 
Q 2766 1069 2766 1631 
L 2766 1759 
L 2194 1759 
z
M 3341 1997 
L 3341 0 
L 2766 0 
L 2766 531 
Q 2569 213 2275 61 
Q 1981 -91 1556 -91 
Q 1019 -91 701 211 
Q 384 513 384 1019 
Q 384 1609 779 1909 
Q 1175 2209 1959 2209 
L 2766 2209 
L 2766 2266 
Q 2766 2663 2505 2880 
Q 2244 3097 1772 3097 
Q 1472 3097 1187 3025 
Q 903 2953 641 2809 
L 641 3341 
Q 956 3463 1253 3523 
Q 1550 3584 1831 3584 
Q 2591 3584 2966 3190 
Q 3341 2797 3341 1997 
z
" transform="scale(0.015625)"/>
      <path id="DejaVuSans-3c7" d="M 581 0 
L 581 3500 
L 3050 3500 
L 3050 3041 
L 1159 3041 
L 1159 0 
L 581 0 
z
" transform="scale(0.015625)"/>
      <path id="DejaVuSans-3e3" d="M 1181 2491 
Q 1181 2231 1381 2084 
Q 1581 1938 1953 1938 
L 2728 1938 
L 2728 3041 
L 1953 3041 
Q 1581 3041 1381 2897 
Q 1181 2753 1181 2491 
z
M 363 0 
L 1431 1534 
Q 1069 1616 828 1830 
Q 588 2044 588 2491 
Q 588 2997 923 3248 
Q 1259 3500 1938 3500 
L 3306 3500 
L 3306 0 
L 2728 0 
L 2728 1478 
L 2013 1478 
L 981 0 
L 363 0 
z
" transform="scale(0.015625)"/>
      <path id="DejaVuSans-3d8" d="M 947 1747 
Q 947 1013 1173 702 
Q 1400 391 1784 391 
Q 2091 391 2447 916 
L 2447 2578 
Q 2091 3103 1784 3103 
Q 1400 3103 1173 2792 
Q 947 2481 947 1747 
z
M 2447 -1331 
L 2447 447 
Q 2269 153 2064 31 
Q 1859 -91 1600 -91 
Q 1078 -91 714 392 
Q 350 875 350 1734 
Q 350 2594 714 3089 
Q 1078 3584 1600 3584 
Q 1859 3584 2064 3465 
Q 2269 3347 2447 3053 
L 2447 4666 
L 3025 4666 
L 3025 3053 
Q 3203 3347 3408 3465 
Q 3613 3584 3872 3584 
Q 4394 3584 4758 3089 
Q 5122 2594 5122 1734 
Q 5122 875 4758 392 
Q 4394 -91 3872 -91 
Q 3613 -91 3408 31 
Q 3203 153 3025 447 
L 3025 -1331 
L 2447 -1331 
z
M 4525 1747 
Q 4525 2481 4298 2792 
Q 4072 3103 3688 3103 
Q 3381 3103 3025 2578 
L 3025 916 
Q 3381 391 3688 391 
Q 4072 391 4298 702 
Q 4525 1013 4525 1747 
z
" transform="scale(0.015625)"/>
      <path id="DejaVuSans-3c6" d="M 1156 1613 
L 1156 459 
L 1975 459 
Q 2369 459 2575 607 
Q 2781 756 2781 1038 
Q 2781 1319 2575 1466 
Q 2369 1613 1975 1613 
L 1156 1613 
z
M 1156 3041 
L 1156 2072 
L 1913 2072 
Q 2238 2072 2444 2201 
Q 2650 2331 2650 2563 
Q 2650 2794 2444 2917 
Q 2238 3041 1913 3041 
L 1156 3041 
z
M 581 3500 
L 1950 3500 
Q 2566 3500 2897 3275 
Q 3228 3050 3228 2634 
Q 3228 2313 3059 2123 
Q 2891 1934 2559 1888 
Q 2956 1813 3175 1575 
Q 3394 1338 3394 981 
Q 3394 513 3033 256 
Q 2672 0 2003 0 
L 581 0 
L 581 3500 
z
" transform="scale(0.015625)"/>
      <path id="DejaVuSans-3e5" d="M 3597 1894 
L 3597 1613 
L 953 1613 
Q 991 1019 1311 708 
Q 1631 397 2203 397 
Q 2534 397 2845 478 
Q 3156 559 3463 722 
L 3463 178 
Q 3153 47 2828 -22 
Q 2503 -91 2169 -91 
Q 1331 -91 842 396 
Q 353 884 353 1716 
Q 353 2575 817 3079 
Q 1281 3584 2069 3584 
Q 2775 3584 3186 3129 
Q 3597 2675 3597 1894 
z
M 3022 2063 
Q 3016 2534 2758 2815 
Q 2500 3097 2075 3097 
Q 1594 3097 1305 2825 
Q 1016 2553 972 2059 
L 3022 2063 
z
M 2363 4850 
L 2997 4850 
L 2997 4219 
L 2363 4219 
L 2363 4850 
z
M 1141 4850 
L 1775 4850 
L 1775 4219 
L 1141 4219 
L 1141 4850 
z
" transform="scale(0.015625)"/>
     </defs>
     <use xlink:href="#DejaVuSans-3ce"/>
     <use xlink:href="#DejaVuSans-3c4" transform="translate(60.40625 0)"/>
     <use xlink:href="#DejaVuSans-3d6" transform="translate(121.6875 0)"/>
     <use xlink:href="#DejaVuSans-3c9" transform="translate(179.9375 0)"/>
     <use xlink:href="#DejaVuSans-3c7" transform="translate(241.46875 0)"/>
     <use xlink:href="#DejaVuSans-3d2" transform="translate(294.015625 0)"/>
     <use xlink:href="#DejaVuSans-3d4" transform="translate(355.203125 0)"/>
     <use xlink:href="#DejaVuSans-3cc" transform="translate(418.6875 0)"/>
     <use xlink:href="#DejaVuSans-3e3" transform="translate(483.671875 0)"/>
     <use xlink:href="#DejaVuSans-3" transform="translate(543.828125 0)"/>
     <use xlink:href="#DejaVuSans-3d1" transform="translate(575.609375 0)"/>
     <use xlink:href="#DejaVuSans-3c9" transform="translate(640.984375 0)"/>
     <use xlink:href="#DejaVuSans-3" transform="translate(702.515625 0)"/>
     <use xlink:href="#DejaVuSans-3cb" transform="translate(734.296875 0)"/>
     <use xlink:href="#DejaVuSans-3c4" transform="translate(787.46875 0)"/>
     <use xlink:href="#DejaVuSans-3d8" transform="translate(848.75 0)"/>
     <use xlink:href="#DejaVuSans-3cc" transform="translate(934.25 0)"/>
     <use xlink:href="#DejaVuSans-3ce" transform="translate(999.234375 0)"/>
     <use xlink:href="#DejaVuSans-3d5" transform="translate(1059.640625 0)"/>
     <use xlink:href="#DejaVuSans-3cc" transform="translate(1114.625 0)"/>
     <use xlink:href="#DejaVuSans-3d4" transform="translate(1179.609375 0)"/>
     <use xlink:href="#DejaVuSans-3d2" transform="translate(1243.09375 0)"/>
     <use xlink:href="#DejaVuSans-3c6" transform="translate(1304.28125 0)"/>
     <use xlink:href="#DejaVuSans-3c4" transform="translate(1363.21875 0)"/>
     <use xlink:href="#DejaVuSans-3d1" transform="translate(1424.5 0)"/>
     <use xlink:href="#DejaVuSans-3c4" transform="translate(1489.875 0)"/>
     <use xlink:href="#DejaVuSans-3" transform="translate(1551.15625 0)"/>
     <use xlink:href="#DejaVuSans-3c6" transform="translate(1582.9375 0)"/>
     <use xlink:href="#DejaVuSans-3" transform="translate(1641.875 0)"/>
     <use xlink:href="#DejaVuSans-3d2" transform="translate(1673.65625 0)"/>
     <use xlink:href="#DejaVuSans-3d6" transform="translate(1734.84375 0)"/>
     <use xlink:href="#DejaVuSans-3db" transform="translate(1793.09375 0)"/>
     <use xlink:href="#DejaVuSans-3e5" transform="translate(1852.171875 0)"/>
     <use xlink:href="#DejaVuSans-3d6" transform="translate(1913.703125 0)"/>
     <use xlink:href="#DejaVuSans-3c9" transform="translate(1971.953125 0)"/>
     <use xlink:href="#DejaVuSans-11" transform="translate(2033.484375 0)"/>
    </g>
   </g>
   <g id="text_29">
    <!-- Production smoke показал то, чего не видела offline-метрика -->
    <g style="fill: #f0f6fc" transform="translate(93.849609 17.077969) scale(0.13 -0.13)">
     <defs>
      <path id="DejaVuSans-Bold-55" d="M 3138 2547 
Q 2991 2616 2845 2648 
Q 2700 2681 2553 2681 
Q 2122 2681 1889 2404 
Q 1656 2128 1656 1613 
L 1656 0 
L 538 0 
L 538 3500 
L 1656 3500 
L 1656 2925 
Q 1872 3269 2151 3426 
Q 2431 3584 2822 3584 
Q 2878 3584 2943 3579 
Q 3009 3575 3134 3559 
L 3138 2547 
z
" transform="scale(0.015625)"/>
      <path id="DejaVuSans-Bold-52" d="M 2203 2784 
Q 1831 2784 1636 2517 
Q 1441 2250 1441 1747 
Q 1441 1244 1636 976 
Q 1831 709 2203 709 
Q 2569 709 2762 976 
Q 2956 1244 2956 1747 
Q 2956 2250 2762 2517 
Q 2569 2784 2203 2784 
z
M 2203 3584 
Q 3106 3584 3614 3096 
Q 4122 2609 4122 1747 
Q 4122 884 3614 396 
Q 3106 -91 2203 -91 
Q 1297 -91 786 396 
Q 275 884 275 1747 
Q 275 2609 786 3096 
Q 1297 3584 2203 3584 
z
" transform="scale(0.015625)"/>
      <path id="DejaVuSans-Bold-47" d="M 2919 2988 
L 2919 4863 
L 4044 4863 
L 4044 0 
L 2919 0 
L 2919 506 
Q 2688 197 2409 53 
Q 2131 -91 1766 -91 
Q 1119 -91 703 423 
Q 288 938 288 1747 
Q 288 2556 703 3070 
Q 1119 3584 1766 3584 
Q 2128 3584 2408 3439 
Q 2688 3294 2919 2988 
z
M 2181 722 
Q 2541 722 2730 984 
Q 2919 1247 2919 1747 
Q 2919 2247 2730 2509 
Q 2541 2772 2181 2772 
Q 1825 2772 1636 2509 
Q 1447 2247 1447 1747 
Q 1447 1247 1636 984 
Q 1825 722 2181 722 
z
" transform="scale(0.015625)"/>
      <path id="DejaVuSans-Bold-58" d="M 500 1363 
L 500 3500 
L 1625 3500 
L 1625 3150 
Q 1625 2866 1622 2436 
Q 1619 2006 1619 1863 
Q 1619 1441 1641 1255 
Q 1663 1069 1716 984 
Q 1784 875 1895 815 
Q 2006 756 2150 756 
Q 2500 756 2700 1025 
Q 2900 1294 2900 1772 
L 2900 3500 
L 4019 3500 
L 4019 0 
L 2900 0 
L 2900 506 
Q 2647 200 2364 54 
Q 2081 -91 1741 -91 
Q 1134 -91 817 281 
Q 500 653 500 1363 
z
" transform="scale(0.015625)"/>
      <path id="DejaVuSans-Bold-46" d="M 3366 3391 
L 3366 2478 
Q 3138 2634 2908 2709 
Q 2678 2784 2431 2784 
Q 1963 2784 1702 2511 
Q 1441 2238 1441 1747 
Q 1441 1256 1702 982 
Q 1963 709 2431 709 
Q 2694 709 2930 787 
Q 3166 866 3366 1019 
L 3366 103 
Q 3103 6 2833 -42 
Q 2563 -91 2291 -91 
Q 1344 -91 809 395 
Q 275 881 275 1747 
Q 275 2613 809 3098 
Q 1344 3584 2291 3584 
Q 2566 3584 2833 3536 
Q 3100 3488 3366 3391 
z
" transform="scale(0.015625)"/>
      <path id="DejaVuSans-Bold-57" d="M 1759 4494 
L 1759 3500 
L 2913 3500 
L 2913 2700 
L 1759 2700 
L 1759 1216 
Q 1759 972 1856 886 
Q 1953 800 2241 800 
L 2816 800 
L 2816 0 
L 1856 0 
Q 1194 0 917 276 
Q 641 553 641 1216 
L 641 2700 
L 84 2700 
L 84 3500 
L 641 3500 
L 641 4494 
L 1759 4494 
z
" transform="scale(0.015625)"/>
      <path id="DejaVuSans-Bold-4c" d="M 538 3500 
L 1656 3500 
L 1656 0 
L 538 0 
L 538 3500 
z
M 538 4863 
L 1656 4863 
L 1656 3950 
L 538 3950 
L 538 4863 
z
" transform="scale(0.015625)"/>
      <path id="DejaVuSans-Bold-51" d="M 4056 2131 
L 4056 0 
L 2931 0 
L 2931 347 
L 2931 1631 
Q 2931 2084 2911 2256 
Q 2891 2428 2841 2509 
Q 2775 2619 2662 2680 
Q 2550 2741 2406 2741 
Q 2056 2741 1856 2470 
Q 1656 2200 1656 1722 
L 1656 0 
L 538 0 
L 538 3500 
L 1656 3500 
L 1656 2988 
Q 1909 3294 2193 3439 
Q 2478 3584 2822 3584 
Q 3428 3584 3742 3212 
Q 4056 2841 4056 2131 
z
" transform="scale(0.015625)"/>
      <path id="DejaVuSans-Bold-3" transform="scale(0.015625)"/>
      <path id="DejaVuSans-Bold-56" d="M 3272 3391 
L 3272 2541 
Q 2913 2691 2578 2766 
Q 2244 2841 1947 2841 
Q 1628 2841 1473 2761 
Q 1319 2681 1319 2516 
Q 1319 2381 1436 2309 
Q 1553 2238 1856 2203 
L 2053 2175 
Q 2913 2066 3209 1816 
Q 3506 1566 3506 1031 
Q 3506 472 3093 190 
Q 2681 -91 1863 -91 
Q 1516 -91 1145 -36 
Q 775 19 384 128 
L 384 978 
Q 719 816 1070 734 
Q 1422 653 1784 653 
Q 2113 653 2278 743 
Q 2444 834 2444 1013 
Q 2444 1163 2330 1236 
Q 2216 1309 1875 1350 
L 1678 1375 
Q 931 1469 631 1722 
Q 331 1975 331 2491 
Q 331 3047 712 3315 
Q 1094 3584 1881 3584 
Q 2191 3584 2531 3537 
Q 2872 3491 3272 3391 
z
" transform="scale(0.015625)"/>
      <path id="DejaVuSans-Bold-50" d="M 3781 2919 
Q 3994 3244 4286 3414 
Q 4578 3584 4928 3584 
Q 5531 3584 5847 3212 
Q 6163 2841 6163 2131 
L 6163 0 
L 5038 0 
L 5038 1825 
Q 5041 1866 5042 1909 
Q 5044 1953 5044 2034 
Q 5044 2406 4934 2573 
Q 4825 2741 4581 2741 
Q 4263 2741 4089 2478 
Q 3916 2216 3909 1719 
L 3909 0 
L 2784 0 
L 2784 1825 
Q 2784 2406 2684 2573 
Q 2584 2741 2328 2741 
Q 2006 2741 1831 2477 
Q 1656 2213 1656 1722 
L 1656 0 
L 531 0 
L 531 3500 
L 1656 3500 
L 1656 2988 
Q 1863 3284 2130 3434 
Q 2397 3584 2719 3584 
Q 3081 3584 3359 3409 
Q 3638 3234 3781 2919 
z
" transform="scale(0.015625)"/>
      <path id="DejaVuSans-Bold-4e" d="M 538 4863 
L 1656 4863 
L 1656 2216 
L 2944 3500 
L 4244 3500 
L 2534 1894 
L 4378 0 
L 3022 0 
L 1656 1459 
L 1656 0 
L 538 0 
L 538 4863 
z
" transform="scale(0.015625)"/>
      <path id="DejaVuSans-Bold-48" d="M 4031 1759 
L 4031 1441 
L 1416 1441 
Q 1456 1047 1700 850 
Q 1944 653 2381 653 
Q 2734 653 3104 758 
Q 3475 863 3866 1075 
L 3866 213 
Q 3469 63 3072 -14 
Q 2675 -91 2278 -91 
Q 1328 -91 801 392 
Q 275 875 275 1747 
Q 275 2603 792 3093 
Q 1309 3584 2216 3584 
Q 3041 3584 3536 3087 
Q 4031 2591 4031 1759 
z
M 2881 2131 
Q 2881 2450 2695 2645 
Q 2509 2841 2209 2841 
Q 1884 2841 1681 2658 
Q 1478 2475 1428 2131 
L 2881 2131 
z
" transform="scale(0.015625)"/>
      <path id="DejaVuSans-Bold-3d3" d="M 3884 3500 
L 3884 0 
L 2766 0 
L 2766 2700 
L 1656 2700 
L 1656 0 
L 538 0 
L 538 3500 
L 3884 3500 
z
" transform="scale(0.015625)"/>
      <path id="DejaVuSans-Bold-3d2" d="M 2203 2784 
Q 1831 2784 1636 2517 
Q 1441 2250 1441 1747 
Q 1441 1244 1636 976 
Q 1831 709 2203 709 
Q 2569 709 2762 976 
Q 2956 1244 2956 1747 
Q 2956 2250 2762 2517 
Q 2569 2784 2203 2784 
z
M 2203 3584 
Q 3106 3584 3614 3096 
Q 4122 2609 4122 1747 
Q 4122 884 3614 396 
Q 3106 -91 2203 -91 
Q 1297 -91 786 396 
Q 275 884 275 1747 
Q 275 2609 786 3096 
Q 1297 3584 2203 3584 
z
" transform="scale(0.015625)"/>
      <path id="DejaVuSans-Bold-3ce" d="M 538 3500 
L 1656 3500 
L 1656 2316 
L 2903 3500 
L 4128 3500 
L 2634 2078 
L 4250 0 
L 3094 0 
L 1972 1447 
L 1656 1147 
L 1656 0 
L 538 0 
L 538 3500 
z
" transform="scale(0.015625)"/>
      <path id="DejaVuSans-Bold-3c4" d="M 2106 1575 
Q 1756 1575 1579 1456 
Q 1403 1338 1403 1106 
Q 1403 894 1545 773 
Q 1688 653 1941 653 
Q 2256 653 2472 879 
Q 2688 1106 2688 1447 
L 2688 1575 
L 2106 1575 
z
M 3816 1997 
L 3816 0 
L 2688 0 
L 2688 519 
Q 2463 200 2181 54 
Q 1900 -91 1497 -91 
Q 953 -91 614 226 
Q 275 544 275 1050 
Q 275 1666 698 1953 
Q 1122 2241 2028 2241 
L 2688 2241 
L 2688 2328 
Q 2688 2594 2478 2717 
Q 2269 2841 1825 2841 
Q 1466 2841 1156 2769 
Q 847 2697 581 2553 
L 581 3406 
Q 941 3494 1303 3539 
Q 1666 3584 2028 3584 
Q 2975 3584 3395 3211 
Q 3816 2838 3816 1997 
z
" transform="scale(0.015625)"/>
      <path id="DejaVuSans-Bold-3cb" d="M 900 2181 
L 1413 2181 
Q 1872 2181 2039 2281 
Q 2206 2381 2206 2519 
Q 2206 2841 1469 2841 
Q 853 2841 472 2625 
L 472 3434 
Q 1041 3584 1713 3584 
Q 2500 3584 2862 3361 
Q 3225 3138 3225 2666 
Q 3225 2047 2541 1888 
Q 3313 1697 3313 994 
Q 3313 453 2888 181 
Q 2463 -91 1553 -91 
Q 875 -91 313 84 
L 313 947 
Q 1013 653 1428 653 
Q 1884 653 2089 776 
Q 2294 900 2294 1056 
Q 2294 1491 1394 1491 
L 900 1491 
L 900 2181 
z
" transform="scale(0.015625)"/>
      <path id="DejaVuSans-Bold-3cf" d="M 353 0 
L 353 800 
Q 906 913 1031 1278 
Q 1125 1556 1125 2928 
L 1125 3500 
L 4150 3500 
L 4150 0 
L 3031 0 
L 3031 2700 
L 2244 2700 
L 2244 2584 
Q 2244 1213 2028 813 
Q 1591 0 353 0 
z
" transform="scale(0.015625)"/>
      <path id="DejaVuSans-Bold-3d6" d="M 25 3500 
L 3681 3500 
L 3681 2809 
L 2413 2809 
L 2413 0 
L 1297 0 
L 1297 2809 
L 25 2809 
L 25 3500 
z
" transform="scale(0.015625)"/>
      <path id="DejaVuSans-Bold-f" d="M 653 1209 
L 1778 1209 
L 1778 256 
L 1006 -909 
L 341 -909 
L 653 256 
L 653 1209 
z
" transform="scale(0.015625)"/>
      <path id="DejaVuSans-Bold-3db" d="M 2550 0 
L 2550 1353 
L 1400 1353 
Q 931 1353 672 1629 
Q 413 1906 413 2450 
L 413 3500 
L 1531 3500 
L 1531 2878 
Q 1531 2322 1622 2183 
Q 1713 2044 1950 2044 
L 2550 2044 
L 2550 3500 
L 3669 3500 
L 3669 0 
L 2550 0 
z
" transform="scale(0.015625)"/>
      <path id="DejaVuSans-Bold-3c9" d="M 4031 1759 
L 4031 1441 
L 1416 1441 
Q 1456 1047 1700 850 
Q 1944 653 2381 653 
Q 2734 653 3104 758 
Q 3475 863 3866 1075 
L 3866 213 
Q 3469 63 3072 -14 
Q 2675 -91 2278 -91 
Q 1328 -91 801 392 
Q 275 875 275 1747 
Q 275 2603 792 3093 
Q 1309 3584 2216 3584 
Q 3041 3584 3536 3087 
Q 4031 2591 4031 1759 
z
M 2881 2131 
Q 2881 2450 2695 2645 
Q 2509 2841 2209 2841 
Q 1884 2841 1681 2658 
Q 1478 2475 1428 2131 
L 2881 2131 
z
" transform="scale(0.015625)"/>
      <path id="DejaVuSans-Bold-3c7" d="M 538 0 
L 538 3500 
L 3191 3500 
L 3191 2809 
L 1656 2809 
L 1656 0 
L 538 0 
z
" transform="scale(0.015625)"/>
      <path id="DejaVuSans-Bold-3d1" d="M 538 3500 
L 1656 3500 
L 1656 2169 
L 2766 2169 
L 2766 3500 
L 3884 3500 
L 3884 0 
L 2766 0 
L 2766 1478 
L 1656 1478 
L 1656 0 
L 538 0 
L 538 3500 
z
" transform="scale(0.015625)"/>
      <path id="DejaVuSans-Bold-3c6" d="M 2184 2181 
Q 2378 2181 2478 2261 
Q 2578 2341 2578 2497 
Q 2578 2653 2478 2731 
Q 2378 2809 2184 2809 
L 1656 2809 
L 1656 2181 
L 2184 2181 
z
M 2222 700 
Q 2469 700 2594 798 
Q 2719 897 2719 1094 
Q 2719 1288 2594 1384 
Q 2469 1481 2222 1481 
L 1656 1481 
L 1656 700 
L 2222 700 
z
M 538 3500 
L 2141 3500 
Q 2919 3500 3267 3279 
Q 3616 3059 3616 2575 
Q 3616 2319 3487 2139 
Q 3359 1959 3119 1872 
Q 3428 1788 3598 1561 
Q 3769 1334 3769 1003 
Q 3769 497 3403 248 
Q 3038 0 2294 0 
L 538 0 
L 538 3500 
z
" transform="scale(0.015625)"/>
      <path id="DejaVuSans-Bold-3cc" d="M 3947 3500 
L 3947 0 
L 2828 0 
L 2828 1863 
L 1700 0 
L 538 0 
L 538 3500 
L 1656 3500 
L 1656 1638 
L 2784 3500 
L 3947 3500 
z
" transform="scale(0.015625)"/>
      <path id="DejaVuSans-Bold-3c8" d="M 547 800 
Q 903 919 1053 1314 
Q 1203 1709 1203 2838 
L 1203 3500 
L 4228 3500 
L 4228 800 
L 4809 800 
L 4809 -884 
L 4009 -884 
L 4009 0 
L 1159 0 
L 1159 -884 
L 359 -884 
L 359 800 
L 547 800 
z
M 3109 2700 
L 2322 2700 
L 2322 2603 
Q 2322 1456 2063 800 
L 3109 800 
L 3109 2700 
z
" transform="scale(0.015625)"/>
      <path id="DejaVuSans-Bold-13ae" d="M 2841 4863 
L 2841 4128 
L 2222 4128 
Q 1984 4128 1891 4044 
Q 1797 3956 1797 3744 
L 1797 3500 
L 3078 3500 
L 3078 3744 
Q 3078 4316 3397 4588 
Q 3716 4863 4384 4863 
L 6606 4863 
L 6606 0 
L 5478 0 
L 5478 4128 
L 4622 4128 
Q 4384 4128 4291 4044 
Q 4197 3956 4197 3744 
L 4197 3500 
L 5075 3500 
L 5075 2700 
L 4197 2700 
L 4197 0 
L 3078 0 
L 3078 2700 
L 1797 2700 
L 1797 0 
L 678 0 
L 678 2700 
L 122 2700 
L 122 3500 
L 678 3500 
L 678 3744 
Q 678 4316 997 4588 
Q 1316 4863 1984 4863 
L 2841 4863 
z
" transform="scale(0.015625)"/>
      <path id="DejaVuSans-Bold-10" d="M 347 2297 
L 2309 2297 
L 2309 1388 
L 347 1388 
L 347 2297 
z
" transform="scale(0.015625)"/>
      <path id="DejaVuSans-Bold-3d0" d="M 538 3500 
L 1825 3500 
L 2613 1750 
L 3400 3500 
L 4691 3500 
L 4691 0 
L 3575 0 
L 3575 1984 
L 2984 672 
L 2250 672 
L 1656 1984 
L 1656 0 
L 538 0 
L 538 3500 
z
" transform="scale(0.015625)"/>
      <path id="DejaVuSans-Bold-3d4" d="M 1656 506 
L 1656 -1331 
L 538 -1331 
L 538 3500 
L 1656 3500 
L 1656 2988 
Q 1888 3294 2169 3439 
Q 2450 3584 2816 3584 
Q 3463 3584 3878 3070 
Q 4294 2556 4294 1747 
Q 4294 938 3878 423 
Q 3463 -91 2816 -91 
Q 2450 -91 2169 54 
Q 1888 200 1656 506 
z
M 2400 2772 
Q 2041 2772 1848 2508 
Q 1656 2244 1656 1747 
Q 1656 1250 1848 986 
Q 2041 722 2400 722 
Q 2759 722 2948 984 
Q 3138 1247 3138 1747 
Q 3138 2247 2948 2509 
Q 2759 2772 2400 2772 
z
" transform="scale(0.015625)"/>
     </defs>
     <use xlink:href="#DejaVuSans-Bold-33"/>
     <use xlink:href="#DejaVuSans-Bold-55" transform="translate(73.296875 0)"/>
     <use xlink:href="#DejaVuSans-Bold-52" transform="translate(122.609375 0)"/>
     <use xlink:href="#DejaVuSans-Bold-47" transform="translate(191.3125 0)"/>
     <use xlink:href="#DejaVuSans-Bold-58" transform="translate(262.890625 0)"/>
     <use xlink:href="#DejaVuSans-Bold-46" transform="translate(334.078125 0)"/>
     <use xlink:href="#DejaVuSans-Bold-57" transform="translate(393.359375 0)"/>
     <use xlink:href="#DejaVuSans-Bold-4c" transform="translate(441.15625 0)"/>
     <use xlink:href="#DejaVuSans-Bold-52" transform="translate(475.4375 0)"/>
     <use xlink:href="#DejaVuSans-Bold-51" transform="translate(544.140625 0)"/>
     <use xlink:href="#DejaVuSans-Bold-3" transform="translate(615.328125 0)"/>
     <use xlink:href="#DejaVuSans-Bold-56" transform="translate(650.140625 0)"/>
     <use xlink:href="#DejaVuSans-Bold-50" transform="translate(709.65625 0)"/>
     <use xlink:href="#DejaVuSans-Bold-52" transform="translate(813.859375 0)"/>
     <use xlink:href="#DejaVuSans-Bold-4e" transform="translate(882.5625 0)"/>
     <use xlink:href="#DejaVuSans-Bold-48" transform="translate(946.375 0)"/>
     <use xlink:href="#DejaVuSans-Bold-3" transform="translate(1014.203125 0)"/>
     <use xlink:href="#DejaVuSans-Bold-3d3" transform="translate(1049.015625 0)"/>
     <use xlink:href="#DejaVuSans-Bold-3d2" transform="translate(1118.109375 0)"/>
     <use xlink:href="#DejaVuSans-Bold-3ce" transform="translate(1186.8125 0)"/>
     <use xlink:href="#DejaVuSans-Bold-3c4" transform="translate(1254.6875 0)"/>
     <use xlink:href="#DejaVuSans-Bold-3cb" transform="translate(1322.171875 0)"/>
     <use xlink:href="#DejaVuSans-Bold-3c4" transform="translate(1380.28125 0)"/>
     <use xlink:href="#DejaVuSans-Bold-3cf" transform="translate(1447.765625 0)"/>
     <use xlink:href="#DejaVuSans-Bold-3" transform="translate(1521.015625 0)"/>
     <use xlink:href="#DejaVuSans-Bold-3d6" transform="translate(1555.828125 0)"/>
     <use xlink:href="#DejaVuSans-Bold-3d2" transform="translate(1613.78125 0)"/>
     <use xlink:href="#DejaVuSans-Bold-f" transform="translate(1682.484375 0)"/>
     <use xlink:href="#DejaVuSans-Bold-3" transform="translate(1720.46875 0)"/>
     <use xlink:href="#DejaVuSans-Bold-3db" transform="translate(1755.28125 0)"/>
     <use xlink:href="#DejaVuSans-Bold-3c9" transform="translate(1823.9375 0)"/>
     <use xlink:href="#DejaVuSans-Bold-3c7" transform="translate(1891.765625 0)"/>
     <use xlink:href="#DejaVuSans-Bold-3d2" transform="translate(1944.015625 0)"/>
     <use xlink:href="#DejaVuSans-Bold-3" transform="translate(2012.71875 0)"/>
     <use xlink:href="#DejaVuSans-Bold-3d1" transform="translate(2047.53125 0)"/>
     <use xlink:href="#DejaVuSans-Bold-3c9" transform="translate(2116.625 0)"/>
     <use xlink:href="#DejaVuSans-Bold-3" transform="translate(2184.453125 0)"/>
     <use xlink:href="#DejaVuSans-Bold-3c6" transform="translate(2219.265625 0)"/>
     <use xlink:href="#DejaVuSans-Bold-3cc" transform="translate(2282.546875 0)"/>
     <use xlink:href="#DejaVuSans-Bold-3c8" transform="translate(2352.609375 0)"/>
     <use xlink:href="#DejaVuSans-Bold-3c9" transform="translate(2433.375 0)"/>
     <use xlink:href="#DejaVuSans-Bold-3cf" transform="translate(2501.203125 0)"/>
     <use xlink:href="#DejaVuSans-Bold-3c4" transform="translate(2574.453125 0)"/>
     <use xlink:href="#DejaVuSans-Bold-3" transform="translate(2641.9375 0)"/>
     <use xlink:href="#DejaVuSans-Bold-52" transform="translate(2676.75 0)"/>
     <use xlink:href="#DejaVuSans-Bold-13ae" transform="translate(2745.453125 0)"/>
     <use xlink:href="#DejaVuSans-Bold-4c" transform="translate(2857.078125 0)"/>
     <use xlink:href="#DejaVuSans-Bold-51" transform="translate(2891.359375 0)"/>
     <use xlink:href="#DejaVuSans-Bold-48" transform="translate(2962.546875 0)"/>
     <use xlink:href="#DejaVuSans-Bold-10" transform="translate(3030.375 0)"/>
     <use xlink:href="#DejaVuSans-Bold-3d0" transform="translate(3071.875 0)"/>
     <use xlink:href="#DejaVuSans-Bold-3c9" transform="translate(3153.609375 0)"/>
     <use xlink:href="#DejaVuSans-Bold-3d6" transform="translate(3221.4375 0)"/>
     <use xlink:href="#DejaVuSans-Bold-3d4" transform="translate(3279.390625 0)"/>
     <use xlink:href="#DejaVuSans-Bold-3cc" transform="translate(3350.96875 0)"/>
     <use xlink:href="#DejaVuSans-Bold-3ce" transform="translate(3421.03125 0)"/>
     <use xlink:href="#DejaVuSans-Bold-3c4" transform="translate(3488.90625 0)"/>
    </g>
   </g>
   <g id="legend_1">
    <g id="patch_23">
     <path d="M 306.144625 388.905062 
L 326.144625 388.905062 
L 326.144625 381.905062 
L 306.144625 381.905062 
z
" style="fill: #238636; stroke: #0d1117; stroke-linejoin: miter"/>
    </g>
    <g id="text_30">
     <!-- PASS -->
     <g style="fill: #8b949e" transform="translate(334.144625 388.905062) scale(0.1 -0.1)">
      <use xlink:href="#DejaVuSans-33"/>
      <use xlink:href="#DejaVuSans-24" transform="translate(53.90625 0)"/>
      <use xlink:href="#DejaVuSans-36" transform="translate(122.3125 0)"/>
      <use xlink:href="#DejaVuSans-36" transform="translate(185.796875 0)"/>
     </g>
    </g>
    <g id="patch_24">
     <path d="M 306.144625 403.905844 
L 326.144625 403.905844 
L 326.144625 396.905844 
L 306.144625 396.905844 
z
" style="fill: #da3633; stroke: #0d1117; stroke-linejoin: miter"/>
    </g>
    <g id="text_31">
     <!-- FAIL -->
     <g style="fill: #8b949e" transform="translate(334.144625 403.905844) scale(0.1 -0.1)">
      <defs>
       <path id="DejaVuSans-2f" d="M 628 4666 
L 1259 4666 
L 1259 531 
L 3531 531 
L 3531 0 
L 628 0 
L 628 4666 
z
" transform="scale(0.015625)"/>
      </defs>
      <use xlink:href="#DejaVuSans-29"/>
      <use xlink:href="#DejaVuSans-24" transform="translate(48.34375 0)"/>
      <use xlink:href="#DejaVuSans-2c" transform="translate(116.75 0)"/>
      <use xlink:href="#DejaVuSans-2f" transform="translate(146.25 0)"/>
     </g>
    </g>
    <g id="patch_25">
     <path d="M 306.144625 418.906625 
L 326.144625 418.906625 
L 326.144625 411.906625 
L 306.144625 411.906625 
z
" style="fill: #6e7681; stroke: #0d1117; stroke-linejoin: miter"/>
    </g>
    <g id="text_32">
     <!-- NOT RECORDED -->
     <g style="fill: #8b949e" transform="translate(334.144625 418.906625) scale(0.1 -0.1)">
      <defs>
       <path id="DejaVuSans-27" d="M 1259 4147 
L 1259 519 
L 2022 519 
Q 2988 519 3436 956 
Q 3884 1394 3884 2338 
Q 3884 3275 3436 3711 
Q 2988 4147 2022 4147 
L 1259 4147 
z
M 628 4666 
L 1925 4666 
Q 3281 4666 3915 4102 
Q 4550 3538 4550 2338 
Q 4550 1131 3912 565 
Q 3275 0 1925 0 
L 628 0 
L 628 4666 
z
" transform="scale(0.015625)"/>
      </defs>
      <use xlink:href="#DejaVuSans-31"/>
      <use xlink:href="#DejaVuSans-32" transform="translate(74.8125 0)"/>
      <use xlink:href="#DejaVuSans-37" transform="translate(153.53125 0)"/>
      <use xlink:href="#DejaVuSans-3" transform="translate(214.609375 0)"/>
      <use xlink:href="#DejaVuSans-35" transform="translate(246.390625 0)"/>
      <use xlink:href="#DejaVuSans-28" transform="translate(315.875 0)"/>
      <use xlink:href="#DejaVuSans-26" transform="translate(379.0625 0)"/>
      <use xlink:href="#DejaVuSans-32" transform="translate(448.890625 0)"/>
      <use xlink:href="#DejaVuSans-35" transform="translate(527.609375 0)"/>
      <use xlink:href="#DejaVuSans-27" transform="translate(597.09375 0)"/>
      <use xlink:href="#DejaVuSans-28" transform="translate(674.09375 0)"/>
      <use xlink:href="#DejaVuSans-27" transform="translate(737.28125 0)"/>
     </g>
    </g>
   </g>
  </g>
 </g>
 <defs>
  <clipPath id="p96929dac59">
   <rect x="225.45725" y="32.077969" width="199.1155" height="398.231"/>
  </clipPath>
 </defs>
</svg>
