<svg xmlns="http://www.w3.org/2000/svg" viewBox="0 0 640 420" width="640" height="420" role="img" aria-label="LoRA vs GPT radar">
<defs><marker id="arrow" markerWidth="10" markerHeight="10" refX="9" refY="3" orient="auto" markerUnits="strokeWidth"><path d="M0,0 L0,6 L9,3 z" fill="#ffffff"/></marker></defs>
<rect width="640" height="420" fill="#0d0d10" rx="8"/>
<text x="30" y="30" fill="#e8e8ec" font-size="16" font-family="Inter, sans-serif" text-anchor="start" font-weight="600">LoRA vs GPT-4o-mini — external validation</text>
<circle cx="320" cy="220" r="24.0" fill="none" stroke="#2a2a36" stroke-width="1"/>
<circle cx="320" cy="220" r="48.0" fill="none" stroke="#2a2a36" stroke-width="1"/>
<circle cx="320" cy="220" r="72.0" fill="none" stroke="#2a2a36" stroke-width="1"/>
<circle cx="320" cy="220" r="96.0" fill="none" stroke="#2a2a36" stroke-width="1"/>
<circle cx="320" cy="220" r="120.0" fill="none" stroke="#2a2a36" stroke-width="1"/>
<line x1="320" y1="220" x2="320.0" y2="100.0" stroke="#2a2a36" stroke-width="1"/>
<text x="320.0" y="76.0" fill="#e8e8ec" font-size="10" font-family="Inter, sans-serif" text-anchor="middle" font-weight="normal">Accuracy</text>
<line x1="320" y1="220" x2="440.0" y2="220.0" stroke="#2a2a36" stroke-width="1"/>
<text x="468.0" y="224.0" fill="#e8e8ec" font-size="10" font-family="Inter, sans-serif" text-anchor="start" font-weight="normal">1/MAE</text>
<line x1="320" y1="220" x2="320.0" y2="340.0" stroke="#2a2a36" stroke-width="1"/>
<text x="320.0" y="372.0" fill="#e8e8ec" font-size="10" font-family="Inter, sans-serif" text-anchor="middle" font-weight="normal">Precision
(1-FPR)</text>
<line x1="320" y1="220" x2="200.0" y2="220.00000000000003" stroke="#2a2a36" stroke-width="1"/>
<text x="172.0" y="224.00000000000003" fill="#e8e8ec" font-size="10" font-family="Inter, sans-serif" text-anchor="end" font-weight="normal">Recall
(1-FNR)</text>
<polygon points="320.0,100.0 440.0,220.0 320.0,338.42105263157896 200.0,220.00000000000003" fill="none" stroke="#96CEB4" stroke-width="2" opacity="0.5"/>
<polygon points="320.0,101.25 357.8221778221778,220.0 320.0,340.0 211.42857142857144,220.0" fill="none" stroke="#4ECDC4" stroke-width="2" opacity="0.5"/>
<rect x="480" y="90" width="14" height="14" fill="#4ECDC4" stroke="none" stroke-width="1" rx="2"/>
<text x="502" y="102" fill="#e8e8ec" font-size="11" font-family="Inter, sans-serif" text-anchor="start" font-weight="normal">LoRA</text>
<rect x="480" y="120" width="14" height="14" fill="#96CEB4" stroke="none" stroke-width="1" rx="2"/>
<text x="502" y="132" fill="#e8e8ec" font-size="11" font-family="Inter, sans-serif" text-anchor="start" font-weight="normal">GPT-4o-mini</text>
<text x="480" y="170" fill="#4ECDC4" font-size="10" font-family="Inter, sans-serif" text-anchor="start" font-weight="normal">LoRA competitive on decisions</text>
<text x="480" y="188" fill="#8a8a9a" font-size="10" font-family="Inter, sans-serif" text-anchor="start" font-weight="normal">but not on MAE or latency</text>
</svg>
